<?xml version="1.0" encoding="utf-8" standalone="no"?>
<!DOCTYPE svg PUBLIC "-//W3C//DTD SVG 1.1//EN"
  "http://www.w3.org/Graphics/SVG/1.1/DTD/svg11.dtd">
<svg xmlns:xlink="http://www.w3.org/1999/xlink" width="864pt" height="360pt" viewBox="0 0 864 360" xmlns="http://www.w3.org/2000/svg" version="1.1">
 <metadata>
  <rdf:RDF xmlns:dc="http://purl.org/dc/elements/1.1/" xmlns:cc="http://creativecommons.org/ns#" xmlns:rdf="http://www.w3.org/1999/02/22-rdf-syntax-ns#">
   <cc:Work>
    <dc:type rdf:resource="http://purl.org/dc/dcmitype/StillImage"/>
    <dc:date>2025-04-01T08:16:57.313309</dc:date>
    <dc:format>image/svg+xml</dc:format>
    <dc:creator>
     <cc:Agent>
      <dc:title>Matplotlib v3.10.1, https://matplotlib.org/</dc:title>
     </cc:Agent>
    </dc:creator>
   </cc:Work>
  </rdf:RDF>
 </metadata>
 <defs>
  <style type="text/css">*{stroke-linejoin: round; stroke-linecap: butt}</style>
 </defs>
 <g id="figure_1">
  <g id="patch_1">
   <path d="M 0 360 
L 864 360 
L 864 0 
L 0 0 
L 0 360 
z
" style="fill: none; opacity: 0"/>
  </g>
  <g id="axes_1">
   <g id="patch_2">
    <path d="M 108 320.4 
L 777.6 320.4 
L 777.6 43.2 
L 108 43.2 
L 108 320.4 
z
" style="fill: none; opacity: 0"/>
   </g>
   <g id="matplotlib.axis_1">
    <g id="xtick_1">
     <g id="line2d_1">
      <path d="M 128.042357 320.4 
L 128.042357 43.2 
" clip-path="url(#p6539c1adf2)" style="fill: none; stroke-dasharray: 5.12,1.28,0.8,1.28; stroke-dashoffset: 0; stroke: #b0b0b0; stroke-width: 0.8"/>
     </g>
     <g id="line2d_2">
      <defs>
       <path id="mfc5e5fd79e" d="M 0 0 
L 0 3.5 
" style="stroke: #a9a9a9; stroke-width: 0.8"/>
      </defs>
      <g>
       <use xlink:href="#mfc5e5fd79e" x="128.042357" y="320.4" style="fill: #a9a9a9; stroke: #a9a9a9; stroke-width: 0.8"/>
      </g>
     </g>
     <g id="text_1">
      <!-- 2021-07 -->
      <g style="fill: #a9a9a9" transform="translate(107.150951 334.998438) scale(0.1 -0.1)">
       <defs>
        <path id="DejaVuSans-32" d="M 1228 531 
L 3431 531 
L 3431 0 
L 469 0 
L 469 531 
Q 828 903 1448 1529 
Q 2069 2156 2228 2338 
Q 2531 2678 2651 2914 
Q 2772 3150 2772 3378 
Q 2772 3750 2511 3984 
Q 2250 4219 1831 4219 
Q 1534 4219 1204 4116 
Q 875 4013 500 3803 
L 500 4441 
Q 881 4594 1212 4672 
Q 1544 4750 1819 4750 
Q 2544 4750 2975 4387 
Q 3406 4025 3406 3419 
Q 3406 3131 3298 2873 
Q 3191 2616 2906 2266 
Q 2828 2175 2409 1742 
Q 1991 1309 1228 531 
z
" transform="scale(0.015625)"/>
        <path id="DejaVuSans-30" d="M 2034 4250 
Q 1547 4250 1301 3770 
Q 1056 3291 1056 2328 
Q 1056 1369 1301 889 
Q 1547 409 2034 409 
Q 2525 409 2770 889 
Q 3016 1369 3016 2328 
Q 3016 3291 2770 3770 
Q 2525 4250 2034 4250 
z
M 2034 4750 
Q 2819 4750 3233 4129 
Q 3647 3509 3647 2328 
Q 3647 1150 3233 529 
Q 2819 -91 2034 -91 
Q 1250 -91 836 529 
Q 422 1150 422 2328 
Q 422 3509 836 4129 
Q 1250 4750 2034 4750 
z
" transform="scale(0.015625)"/>
        <path id="DejaVuSans-31" d="M 794 531 
L 1825 531 
L 1825 4091 
L 703 3866 
L 703 4441 
L 1819 4666 
L 2450 4666 
L 2450 531 
L 3481 531 
L 3481 0 
L 794 0 
L 794 531 
z
" transform="scale(0.015625)"/>
        <path id="DejaVuSans-2d" d="M 313 2009 
L 1997 2009 
L 1997 1497 
L 313 1497 
L 313 2009 
z
" transform="scale(0.015625)"/>
        <path id="DejaVuSans-37" d="M 525 4666 
L 3525 4666 
L 3525 4397 
L 1831 0 
L 1172 0 
L 2766 4134 
L 525 4134 
L 525 4666 
z
" transform="scale(0.015625)"/>
       </defs>
       <use xlink:href="#DejaVuSans-32"/>
       <use xlink:href="#DejaVuSans-30" transform="translate(63.623047 0)"/>
       <use xlink:href="#DejaVuSans-32" transform="translate(127.246094 0)"/>
       <use xlink:href="#DejaVuSans-31" transform="translate(190.869141 0)"/>
       <use xlink:href="#DejaVuSans-2d" transform="translate(254.492188 0)"/>
       <use xlink:href="#DejaVuSans-30" transform="translate(290.576172 0)"/>
       <use xlink:href="#DejaVuSans-37" transform="translate(354.199219 0)"/>
      </g>
     </g>
    </g>
    <g id="xtick_2">
     <g id="line2d_3">
      <path d="M 211.194412 320.4 
L 211.194412 43.2 
" clip-path="url(#p6539c1adf2)" style="fill: none; stroke-dasharray: 5.12,1.28,0.8,1.28; stroke-dashoffset: 0; stroke: #b0b0b0; stroke-width: 0.8"/>
     </g>
     <g id="line2d_4">
      <g>
       <use xlink:href="#mfc5e5fd79e" x="211.194412" y="320.4" style="fill: #a9a9a9; stroke: #a9a9a9; stroke-width: 0.8"/>
      </g>
     </g>
     <g id="text_2">
      <!-- 2022-01 -->
      <g style="fill: #a9a9a9" transform="translate(190.303006 334.998438) scale(0.1 -0.1)">
       <use xlink:href="#DejaVuSans-32"/>
       <use xlink:href="#DejaVuSans-30" transform="translate(63.623047 0)"/>
       <use xlink:href="#DejaVuSans-32" transform="translate(127.246094 0)"/>
       <use xlink:href="#DejaVuSans-32" transform="translate(190.869141 0)"/>
       <use xlink:href="#DejaVuSans-2d" transform="translate(254.492188 0)"/>
       <use xlink:href="#DejaVuSans-30" transform="translate(290.576172 0)"/>
       <use xlink:href="#DejaVuSans-31" transform="translate(354.199219 0)"/>
      </g>
     </g>
    </g>
    <g id="xtick_3">
     <g id="line2d_5">
      <path d="M 292.990727 320.4 
L 292.990727 43.2 
" clip-path="url(#p6539c1adf2)" style="fill: none; stroke-dasharray: 5.12,1.28,0.8,1.28; stroke-dashoffset: 0; stroke: #b0b0b0; stroke-width: 0.8"/>
     </g>
     <g id="line2d_6">
      <g>
       <use xlink:href="#mfc5e5fd79e" x="292.990727" y="320.4" style="fill: #a9a9a9; stroke: #a9a9a9; stroke-width: 0.8"/>
      </g>
     </g>
     <g id="text_3">
      <!-- 2022-07 -->
      <g style="fill: #a9a9a9" transform="translate(272.099321 334.998438) scale(0.1 -0.1)">
       <use xlink:href="#DejaVuSans-32"/>
       <use xlink:href="#DejaVuSans-30" transform="translate(63.623047 0)"/>
       <use xlink:href="#DejaVuSans-32" transform="translate(127.246094 0)"/>
       <use xlink:href="#DejaVuSans-32" transform="translate(190.869141 0)"/>
       <use xlink:href="#DejaVuSans-2d" transform="translate(254.492188 0)"/>
       <use xlink:href="#DejaVuSans-30" transform="translate(290.576172 0)"/>
       <use xlink:href="#DejaVuSans-37" transform="translate(354.199219 0)"/>
      </g>
     </g>
    </g>
    <g id="xtick_4">
     <g id="line2d_7">
      <path d="M 376.142782 320.4 
L 376.142782 43.2 
" clip-path="url(#p6539c1adf2)" style="fill: none; stroke-dasharray: 5.12,1.28,0.8,1.28; stroke-dashoffset: 0; stroke: #b0b0b0; stroke-width: 0.8"/>
     </g>
     <g id="line2d_8">
      <g>
       <use xlink:href="#mfc5e5fd79e" x="376.142782" y="320.4" style="fill: #a9a9a9; stroke: #a9a9a9; stroke-width: 0.8"/>
      </g>
     </g>
     <g id="text_4">
      <!-- 2023-01 -->
      <g style="fill: #a9a9a9" transform="translate(355.251376 334.998438) scale(0.1 -0.1)">
       <defs>
        <path id="DejaVuSans-33" d="M 2597 2516 
Q 3050 2419 3304 2112 
Q 3559 1806 3559 1356 
Q 3559 666 3084 287 
Q 2609 -91 1734 -91 
Q 1441 -91 1130 -33 
Q 819 25 488 141 
L 488 750 
Q 750 597 1062 519 
Q 1375 441 1716 441 
Q 2309 441 2620 675 
Q 2931 909 2931 1356 
Q 2931 1769 2642 2001 
Q 2353 2234 1838 2234 
L 1294 2234 
L 1294 2753 
L 1863 2753 
Q 2328 2753 2575 2939 
Q 2822 3125 2822 3475 
Q 2822 3834 2567 4026 
Q 2313 4219 1838 4219 
Q 1578 4219 1281 4162 
Q 984 4106 628 3988 
L 628 4550 
Q 988 4650 1302 4700 
Q 1616 4750 1894 4750 
Q 2613 4750 3031 4423 
Q 3450 4097 3450 3541 
Q 3450 3153 3228 2886 
Q 3006 2619 2597 2516 
z
" transform="scale(0.015625)"/>
       </defs>
       <use xlink:href="#DejaVuSans-32"/>
       <use xlink:href="#DejaVuSans-30" transform="translate(63.623047 0)"/>
       <use xlink:href="#DejaVuSans-32" transform="translate(127.246094 0)"/>
       <use xlink:href="#DejaVuSans-33" transform="translate(190.869141 0)"/>
       <use xlink:href="#DejaVuSans-2d" transform="translate(254.492188 0)"/>
       <use xlink:href="#DejaVuSans-30" transform="translate(290.576172 0)"/>
       <use xlink:href="#DejaVuSans-31" transform="translate(354.199219 0)"/>
      </g>
     </g>
    </g>
    <g id="xtick_5">
     <g id="line2d_9">
      <path d="M 457.939097 320.4 
L 457.939097 43.2 
" clip-path="url(#p6539c1adf2)" style="fill: none; stroke-dasharray: 5.12,1.28,0.8,1.28; stroke-dashoffset: 0; stroke: #b0b0b0; stroke-width: 0.8"/>
     </g>
     <g id="line2d_10">
      <g>
       <use xlink:href="#mfc5e5fd79e" x="457.939097" y="320.4" style="fill: #a9a9a9; stroke: #a9a9a9; stroke-width: 0.8"/>
      </g>
     </g>
     <g id="text_5">
      <!-- 2023-07 -->
      <g style="fill: #a9a9a9" transform="translate(437.047691 334.998438) scale(0.1 -0.1)">
       <use xlink:href="#DejaVuSans-32"/>
       <use xlink:href="#DejaVuSans-30" transform="translate(63.623047 0)"/>
       <use xlink:href="#DejaVuSans-32" transform="translate(127.246094 0)"/>
       <use xlink:href="#DejaVuSans-33" transform="translate(190.869141 0)"/>
       <use xlink:href="#DejaVuSans-2d" transform="translate(254.492188 0)"/>
       <use xlink:href="#DejaVuSans-30" transform="translate(290.576172 0)"/>
       <use xlink:href="#DejaVuSans-37" transform="translate(354.199219 0)"/>
      </g>
     </g>
    </g>
    <g id="xtick_6">
     <g id="line2d_11">
      <path d="M 541.091152 320.4 
L 541.091152 43.2 
" clip-path="url(#p6539c1adf2)" style="fill: none; stroke-dasharray: 5.12,1.28,0.8,1.28; stroke-dashoffset: 0; stroke: #b0b0b0; stroke-width: 0.8"/>
     </g>
     <g id="line2d_12">
      <g>
       <use xlink:href="#mfc5e5fd79e" x="541.091152" y="320.4" style="fill: #a9a9a9; stroke: #a9a9a9; stroke-width: 0.8"/>
      </g>
     </g>
     <g id="text_6">
      <!-- 2024-01 -->
      <g style="fill: #a9a9a9" transform="translate(520.199746 334.998438) scale(0.1 -0.1)">
       <defs>
        <path id="DejaVuSans-34" d="M 2419 4116 
L 825 1625 
L 2419 1625 
L 2419 4116 
z
M 2253 4666 
L 3047 4666 
L 3047 1625 
L 3713 1625 
L 3713 1100 
L 3047 1100 
L 3047 0 
L 2419 0 
L 2419 1100 
L 313 1100 
L 313 1709 
L 2253 4666 
z
" transform="scale(0.015625)"/>
       </defs>
       <use xlink:href="#DejaVuSans-32"/>
       <use xlink:href="#DejaVuSans-30" transform="translate(63.623047 0)"/>
       <use xlink:href="#DejaVuSans-32" transform="translate(127.246094 0)"/>
       <use xlink:href="#DejaVuSans-34" transform="translate(190.869141 0)"/>
       <use xlink:href="#DejaVuSans-2d" transform="translate(254.492188 0)"/>
       <use xlink:href="#DejaVuSans-30" transform="translate(290.576172 0)"/>
       <use xlink:href="#DejaVuSans-31" transform="translate(354.199219 0)"/>
      </g>
     </g>
    </g>
    <g id="xtick_7">
     <g id="line2d_13">
      <path d="M 623.33938 320.4 
L 623.33938 43.2 
" clip-path="url(#p6539c1adf2)" style="fill: none; stroke-dasharray: 5.12,1.28,0.8,1.28; stroke-dashoffset: 0; stroke: #b0b0b0; stroke-width: 0.8"/>
     </g>
     <g id="line2d_14">
      <g>
       <use xlink:href="#mfc5e5fd79e" x="623.33938" y="320.4" style="fill: #a9a9a9; stroke: #a9a9a9; stroke-width: 0.8"/>
      </g>
     </g>
     <g id="text_7">
      <!-- 2024-07 -->
      <g style="fill: #a9a9a9" transform="translate(602.447974 334.998438) scale(0.1 -0.1)">
       <use xlink:href="#DejaVuSans-32"/>
       <use xlink:href="#DejaVuSans-30" transform="translate(63.623047 0)"/>
       <use xlink:href="#DejaVuSans-32" transform="translate(127.246094 0)"/>
       <use xlink:href="#DejaVuSans-34" transform="translate(190.869141 0)"/>
       <use xlink:href="#DejaVuSans-2d" transform="translate(254.492188 0)"/>
       <use xlink:href="#DejaVuSans-30" transform="translate(290.576172 0)"/>
       <use xlink:href="#DejaVuSans-37" transform="translate(354.199219 0)"/>
      </g>
     </g>
    </g>
    <g id="xtick_8">
     <g id="line2d_15">
      <path d="M 706.491436 320.4 
L 706.491436 43.2 
" clip-path="url(#p6539c1adf2)" style="fill: none; stroke-dasharray: 5.12,1.28,0.8,1.28; stroke-dashoffset: 0; stroke: #b0b0b0; stroke-width: 0.8"/>
     </g>
     <g id="line2d_16">
      <g>
       <use xlink:href="#mfc5e5fd79e" x="706.491436" y="320.4" style="fill: #a9a9a9; stroke: #a9a9a9; stroke-width: 0.8"/>
      </g>
     </g>
     <g id="text_8">
      <!-- 2025-01 -->
      <g style="fill: #a9a9a9" transform="translate(685.600029 334.998438) scale(0.1 -0.1)">
       <defs>
        <path id="DejaVuSans-35" d="M 691 4666 
L 3169 4666 
L 3169 4134 
L 1269 4134 
L 1269 2991 
Q 1406 3038 1543 3061 
Q 1681 3084 1819 3084 
Q 2600 3084 3056 2656 
Q 3513 2228 3513 1497 
Q 3513 744 3044 326 
Q 2575 -91 1722 -91 
Q 1428 -91 1123 -41 
Q 819 9 494 109 
L 494 744 
Q 775 591 1075 516 
Q 1375 441 1709 441 
Q 2250 441 2565 725 
Q 2881 1009 2881 1497 
Q 2881 1984 2565 2268 
Q 2250 2553 1709 2553 
Q 1456 2553 1204 2497 
Q 953 2441 691 2322 
L 691 4666 
z
" transform="scale(0.015625)"/>
       </defs>
       <use xlink:href="#DejaVuSans-32"/>
       <use xlink:href="#DejaVuSans-30" transform="translate(63.623047 0)"/>
       <use xlink:href="#DejaVuSans-32" transform="translate(127.246094 0)"/>
       <use xlink:href="#DejaVuSans-35" transform="translate(190.869141 0)"/>
       <use xlink:href="#DejaVuSans-2d" transform="translate(254.492188 0)"/>
       <use xlink:href="#DejaVuSans-30" transform="translate(290.576172 0)"/>
       <use xlink:href="#DejaVuSans-31" transform="translate(354.199219 0)"/>
      </g>
     </g>
    </g>
   </g>
   <g id="matplotlib.axis_2">
    <g id="ytick_1">
     <g id="line2d_17">
      <path d="M 108 307.833694 
L 777.6 307.833694 
" clip-path="url(#p6539c1adf2)" style="fill: none; stroke-dasharray: 5.12,1.28,0.8,1.28; stroke-dashoffset: 0; stroke: #b0b0b0; stroke-width: 0.8"/>
     </g>
     <g id="line2d_18">
      <defs>
       <path id="m3cdb18940a" d="M 0 0 
L -3.5 0 
" style="stroke: #a9a9a9; stroke-width: 0.8"/>
      </defs>
      <g>
       <use xlink:href="#m3cdb18940a" x="108" y="307.833694" style="fill: #a9a9a9; stroke: #a9a9a9; stroke-width: 0.8"/>
      </g>
     </g>
     <g id="text_9">
      <!-- 0 -->
      <g style="fill: #a9a9a9" transform="translate(94.6375 311.632913) scale(0.1 -0.1)">
       <use xlink:href="#DejaVuSans-30"/>
      </g>
     </g>
    </g>
    <g id="ytick_2">
     <g id="line2d_19">
      <path d="M 108 274.13935 
L 777.6 274.13935 
" clip-path="url(#p6539c1adf2)" style="fill: none; stroke-dasharray: 5.12,1.28,0.8,1.28; stroke-dashoffset: 0; stroke: #b0b0b0; stroke-width: 0.8"/>
     </g>
     <g id="line2d_20">
      <g>
       <use xlink:href="#m3cdb18940a" x="108" y="274.13935" style="fill: #a9a9a9; stroke: #a9a9a9; stroke-width: 0.8"/>
      </g>
     </g>
     <g id="text_10">
      <!-- 1000 -->
      <g style="fill: #a9a9a9" transform="translate(75.55 277.938569) scale(0.1 -0.1)">
       <use xlink:href="#DejaVuSans-31"/>
       <use xlink:href="#DejaVuSans-30" transform="translate(63.623047 0)"/>
       <use xlink:href="#DejaVuSans-30" transform="translate(127.246094 0)"/>
       <use xlink:href="#DejaVuSans-30" transform="translate(190.869141 0)"/>
      </g>
     </g>
    </g>
    <g id="ytick_3">
     <g id="line2d_21">
      <path d="M 108 240.445006 
L 777.6 240.445006 
" clip-path="url(#p6539c1adf2)" style="fill: none; stroke-dasharray: 5.12,1.28,0.8,1.28; stroke-dashoffset: 0; stroke: #b0b0b0; stroke-width: 0.8"/>
     </g>
     <g id="line2d_22">
      <g>
       <use xlink:href="#m3cdb18940a" x="108" y="240.445006" style="fill: #a9a9a9; stroke: #a9a9a9; stroke-width: 0.8"/>
      </g>
     </g>
     <g id="text_11">
      <!-- 2000 -->
      <g style="fill: #a9a9a9" transform="translate(75.55 244.244225) scale(0.1 -0.1)">
       <use xlink:href="#DejaVuSans-32"/>
       <use xlink:href="#DejaVuSans-30" transform="translate(63.623047 0)"/>
       <use xlink:href="#DejaVuSans-30" transform="translate(127.246094 0)"/>
       <use xlink:href="#DejaVuSans-30" transform="translate(190.869141 0)"/>
      </g>
     </g>
    </g>
    <g id="ytick_4">
     <g id="line2d_23">
      <path d="M 108 206.750662 
L 777.6 206.750662 
" clip-path="url(#p6539c1adf2)" style="fill: none; stroke-dasharray: 5.12,1.28,0.8,1.28; stroke-dashoffset: 0; stroke: #b0b0b0; stroke-width: 0.8"/>
     </g>
     <g id="line2d_24">
      <g>
       <use xlink:href="#m3cdb18940a" x="108" y="206.750662" style="fill: #a9a9a9; stroke: #a9a9a9; stroke-width: 0.8"/>
      </g>
     </g>
     <g id="text_12">
      <!-- 3000 -->
      <g style="fill: #a9a9a9" transform="translate(75.55 210.549881) scale(0.1 -0.1)">
       <use xlink:href="#DejaVuSans-33"/>
       <use xlink:href="#DejaVuSans-30" transform="translate(63.623047 0)"/>
       <use xlink:href="#DejaVuSans-30" transform="translate(127.246094 0)"/>
       <use xlink:href="#DejaVuSans-30" transform="translate(190.869141 0)"/>
      </g>
     </g>
    </g>
    <g id="ytick_5">
     <g id="line2d_25">
      <path d="M 108 173.056318 
L 777.6 173.056318 
" clip-path="url(#p6539c1adf2)" style="fill: none; stroke-dasharray: 5.12,1.28,0.8,1.28; stroke-dashoffset: 0; stroke: #b0b0b0; stroke-width: 0.8"/>
     </g>
     <g id="line2d_26">
      <g>
       <use xlink:href="#m3cdb18940a" x="108" y="173.056318" style="fill: #a9a9a9; stroke: #a9a9a9; stroke-width: 0.8"/>
      </g>
     </g>
     <g id="text_13">
      <!-- 4000 -->
      <g style="fill: #a9a9a9" transform="translate(75.55 176.855536) scale(0.1 -0.1)">
       <use xlink:href="#DejaVuSans-34"/>
       <use xlink:href="#DejaVuSans-30" transform="translate(63.623047 0)"/>
       <use xlink:href="#DejaVuSans-30" transform="translate(127.246094 0)"/>
       <use xlink:href="#DejaVuSans-30" transform="translate(190.869141 0)"/>
      </g>
     </g>
    </g>
    <g id="ytick_6">
     <g id="line2d_27">
      <path d="M 108 139.361974 
L 777.6 139.361974 
" clip-path="url(#p6539c1adf2)" style="fill: none; stroke-dasharray: 5.12,1.28,0.8,1.28; stroke-dashoffset: 0; stroke: #b0b0b0; stroke-width: 0.8"/>
     </g>
     <g id="line2d_28">
      <g>
       <use xlink:href="#m3cdb18940a" x="108" y="139.361974" style="fill: #a9a9a9; stroke: #a9a9a9; stroke-width: 0.8"/>
      </g>
     </g>
     <g id="text_14">
      <!-- 5000 -->
      <g style="fill: #a9a9a9" transform="translate(75.55 143.161192) scale(0.1 -0.1)">
       <use xlink:href="#DejaVuSans-35"/>
       <use xlink:href="#DejaVuSans-30" transform="translate(63.623047 0)"/>
       <use xlink:href="#DejaVuSans-30" transform="translate(127.246094 0)"/>
       <use xlink:href="#DejaVuSans-30" transform="translate(190.869141 0)"/>
      </g>
     </g>
    </g>
    <g id="ytick_7">
     <g id="line2d_29">
      <path d="M 108 105.667629 
L 777.6 105.667629 
" clip-path="url(#p6539c1adf2)" style="fill: none; stroke-dasharray: 5.12,1.28,0.8,1.28; stroke-dashoffset: 0; stroke: #b0b0b0; stroke-width: 0.8"/>
     </g>
     <g id="line2d_30">
      <g>
       <use xlink:href="#m3cdb18940a" x="108" y="105.667629" style="fill: #a9a9a9; stroke: #a9a9a9; stroke-width: 0.8"/>
      </g>
     </g>
     <g id="text_15">
      <!-- 6000 -->
      <g style="fill: #a9a9a9" transform="translate(75.55 109.466848) scale(0.1 -0.1)">
       <defs>
        <path id="DejaVuSans-36" d="M 2113 2584 
Q 1688 2584 1439 2293 
Q 1191 2003 1191 1497 
Q 1191 994 1439 701 
Q 1688 409 2113 409 
Q 2538 409 2786 701 
Q 3034 994 3034 1497 
Q 3034 2003 2786 2293 
Q 2538 2584 2113 2584 
z
M 3366 4563 
L 3366 3988 
Q 3128 4100 2886 4159 
Q 2644 4219 2406 4219 
Q 1781 4219 1451 3797 
Q 1122 3375 1075 2522 
Q 1259 2794 1537 2939 
Q 1816 3084 2150 3084 
Q 2853 3084 3261 2657 
Q 3669 2231 3669 1497 
Q 3669 778 3244 343 
Q 2819 -91 2113 -91 
Q 1303 -91 875 529 
Q 447 1150 447 2328 
Q 447 3434 972 4092 
Q 1497 4750 2381 4750 
Q 2619 4750 2861 4703 
Q 3103 4656 3366 4563 
z
" transform="scale(0.015625)"/>
       </defs>
       <use xlink:href="#DejaVuSans-36"/>
       <use xlink:href="#DejaVuSans-30" transform="translate(63.623047 0)"/>
       <use xlink:href="#DejaVuSans-30" transform="translate(127.246094 0)"/>
       <use xlink:href="#DejaVuSans-30" transform="translate(190.869141 0)"/>
      </g>
     </g>
    </g>
    <g id="ytick_8">
     <g id="line2d_31">
      <path d="M 108 71.973285 
L 777.6 71.973285 
" clip-path="url(#p6539c1adf2)" style="fill: none; stroke-dasharray: 5.12,1.28,0.8,1.28; stroke-dashoffset: 0; stroke: #b0b0b0; stroke-width: 0.8"/>
     </g>
     <g id="line2d_32">
      <g>
       <use xlink:href="#m3cdb18940a" x="108" y="71.973285" style="fill: #a9a9a9; stroke: #a9a9a9; stroke-width: 0.8"/>
      </g>
     </g>
     <g id="text_16">
      <!-- 7000 -->
      <g style="fill: #a9a9a9" transform="translate(75.55 75.772504) scale(0.1 -0.1)">
       <use xlink:href="#DejaVuSans-37"/>
       <use xlink:href="#DejaVuSans-30" transform="translate(63.623047 0)"/>
       <use xlink:href="#DejaVuSans-30" transform="translate(127.246094 0)"/>
       <use xlink:href="#DejaVuSans-30" transform="translate(190.869141 0)"/>
      </g>
     </g>
    </g>
   </g>
   <g id="line2d_33">
    <path d="M 138.436364 307.732611 
L 141.147844 307.496751 
L 141.599757 307.294585 
L 143.40741 307.058724 
L 145.215064 306.688087 
L 146.11889 306.553309 
L 148.378457 306.351143 
L 149.282284 305.980505 
L 149.734197 305.374007 
L 150.186111 305.070758 
L 150.638024 304.059928 
L 151.089937 303.992539 
L 151.541851 303.621901 
L 152.445677 303.150181 
L 154.253331 301.667629 
L 156.060984 300.757882 
L 157.416724 300.11769 
L 157.868637 299.376414 
L 158.772464 298.702527 
L 159.224377 298.500361 
L 163.743511 297.826474 
L 164.195424 297.624308 
L 167.358818 297.354753 
L 169.166471 296.916727 
L 172.781778 296.411312 
L 173.233691 296.175451 
L 173.685604 296.108063 
L 174.589431 295.804813 
L 177.752824 295.265704 
L 178.656651 294.996149 
L 182.723871 294.288568 
L 183.627698 294.086402 
L 184.531525 294.052708 
L 186.339178 293.614681 
L 186.791091 292.974489 
L 188.146831 292.435379 
L 189.502571 292.064741 
L 189.954485 291.828881 
L 190.858311 291.660409 
L 192.665965 291.1213 
L 193.569791 291.053911 
L 194.473618 290.818051 
L 196.281272 290.34633 
L 196.733185 290.312635 
L 197.637012 289.874609 
L 198.088925 289.80722 
L 198.540838 289.57136 
L 203.511885 288.729001 
L 205.319538 288.189892 
L 205.771452 287.886643 
L 208.031018 287.145367 
L 208.934845 286.505174 
L 210.290585 286.23562 
L 220.232679 283.304212 
L 220.684592 283.270517 
L 222.040332 282.866185 
L 222.492245 282.866185 
L 222.944159 282.664019 
L 223.847985 282.562936 
L 224.299899 282.394465 
L 226.107552 282.327076 
L 227.011379 282.158604 
L 227.915206 281.686883 
L 229.270946 281.181468 
L 229.722859 280.878219 
L 230.626686 280.473887 
L 231.078599 280.238026 
L 231.982426 279.934777 
L 232.434339 279.8 
L 233.338166 279.227196 
L 233.790079 278.721781 
L 234.693906 277.306619 
L 235.145819 277.171841 
L 235.597732 277.171841 
L 236.953472 276.363177 
L 237.405386 276.127316 
L 237.857299 276.026233 
L 238.309212 275.588207 
L 239.213039 275.217569 
L 240.116866 274.779543 
L 242.376432 271.848135 
L 245.087913 270.365584 
L 245.991739 269.624308 
L 246.443653 269.321059 
L 246.895566 268.680866 
L 247.347479 267.636342 
L 247.799393 266.928761 
L 248.251306 266.558123 
L 248.703219 266.355957 
L 252.318526 262.986522 
L 253.222353 262.144164 
L 255.933833 260.425752 
L 256.385746 260.25728 
L 257.741486 259.448616 
L 259.097226 258.538869 
L 260.90488 256.887846 
L 261.808706 256.517208 
L 262.712533 255.877016 
L 263.164446 255.607461 
L 263.61636 255.540072 
L 264.9721 254.765102 
L 265.424013 254.259687 
L 267.68358 253.012996 
L 268.135493 252.844525 
L 269.491233 251.901083 
L 276.269933 249.47509 
L 277.17376 248.632732 
L 278.5295 247.958845 
L 279.433327 247.386041 
L 280.337153 247.116486 
L 280.789067 246.813237 
L 281.24098 246.67846 
L 282.59672 245.768712 
L 284.856287 245.263297 
L 286.212027 244.454633 
L 287.567767 244.151384 
L 288.01968 244.050301 
L 289.37542 243.005776 
L 291.183073 242.500361 
L 291.634987 242.129723 
L 294.346467 241.186282 
L 295.250294 241.01781 
L 296.15412 240.647172 
L 299.317514 239.46787 
L 300.22134 239.333093 
L 301.57708 238.861372 
L 303.836647 237.749458 
L 305.6443 236.738628 
L 309.259607 235.222383 
L 309.711521 235.154994 
L 310.615347 234.58219 
L 311.519174 234.34633 
L 312.874914 233.80722 
L 314.682567 233.57136 
L 315.586394 233.099639 
L 316.038307 232.695307 
L 316.490221 231.852948 
L 318.297874 231.347533 
L 319.653614 230.639952 
L 320.557441 230.336703 
L 321.461267 229.864982 
L 324.172748 228.753069 
L 325.076574 228.550903 
L 325.980401 228.079182 
L 326.432314 227.877016 
L 326.884228 227.809627 
L 329.143794 226.697714 
L 330.047621 226.12491 
L 331.403361 225.855355 
L 333.662928 225.282551 
L 334.114841 224.911913 
L 335.018668 224.608664 
L 337.278234 223.698917 
L 337.730148 223.361974 
L 338.182061 223.193502 
L 339.085888 222.688087 
L 340.893541 222.115283 
L 341.797368 221.542479 
L 342.249281 221.070758 
L 342.701195 220.801203 
L 343.153108 220.70012 
L 344.056935 219.958845 
L 344.508848 219.891456 
L 344.960761 219.150181 
L 345.412675 218.948014 
L 345.864588 218.577377 
L 346.316501 218.509988 
L 347.220328 217.937184 
L 348.124155 217.633935 
L 348.576068 217.296992 
L 349.027981 217.12852 
L 350.835635 215.915523 
L 352.191375 215.207942 
L 353.095201 214.972082 
L 353.999028 214.466667 
L 354.450941 213.691697 
L 355.354768 213.01781 
L 355.806682 212.916727 
L 358.518162 211.602647 
L 359.421988 211.23201 
L 360.777728 210.086402 
L 361.681555 209.311432 
L 362.585382 208.772323 
L 363.037295 208.266907 
L 363.489208 207.963658 
L 364.393035 207.222383 
L 364.844948 207.020217 
L 365.748775 206.110469 
L 366.652602 205.80722 
L 367.556428 205.200722 
L 368.912168 204.493141 
L 369.364082 204.425752 
L 370.719822 203.684477 
L 371.623649 203.111673 
L 376.142782 201.426955 
L 376.594695 201.056318 
L 378.402349 200.348736 
L 378.854262 200.213959 
L 379.758089 199.607461 
L 380.661915 199.236823 
L 381.565742 198.596631 
L 382.469569 196.777136 
L 383.373395 195.698917 
L 384.729135 194.991336 
L 385.632962 194.620698 
L 386.084875 194.553309 
L 386.536789 194.283755 
L 388.796356 193.542479 
L 389.248269 193.340313 
L 390.152096 192.733815 
L 391.507836 192.161011 
L 392.411662 191.655596 
L 393.315489 191.116486 
L 393.767402 190.813237 
L 394.219316 190.307822 
L 395.123142 189.802407 
L 397.382709 188.555716 
L 400.094189 187.207942 
L 401.449929 186.80361 
L 402.805669 186.264501 
L 403.257583 185.927557 
L 404.161409 185.658002 
L 405.065236 185.287365 
L 405.517149 184.916727 
L 407.324803 184.276534 
L 408.228629 183.636342 
L 409.132456 183.265704 
L 410.036283 182.558123 
L 410.940109 182.288568 
L 411.392023 181.884236 
L 411.843936 181.816847 
L 412.747763 181.109266 
L 413.651589 180.637545 
L 414.103503 180.435379 
L 414.555416 179.963658 
L 417.718809 178.683273 
L 418.622636 178.278941 
L 419.978376 177.840915 
L 420.882203 177.706137 
L 421.334116 177.503971 
L 421.78603 177.436582 
L 422.689856 177.03225 
L 423.14177 176.998556 
L 424.949423 176.324669 
L 426.305163 175.347533 
L 426.757076 175.179061 
L 427.660903 174.673646 
L 428.112816 174.538869 
L 430.824296 172.988929 
L 431.27621 172.887846 
L 432.63195 172.079182 
L 433.98769 171.607461 
L 434.891517 171.304212 
L 436.69917 170.697714 
L 437.602997 170.394465 
L 439.41065 170.023827 
L 439.862563 169.821661 
L 440.314477 169.754272 
L 441.218303 169.34994 
L 441.670217 169.282551 
L 442.12213 169.046691 
L 443.025957 168.878219 
L 444.381697 168.372804 
L 445.285523 168.271721 
L 446.641263 167.968472 
L 448.90083 167.56414 
L 460.650577 164.059928 
L 461.10249 163.588207 
L 462.006317 163.217569 
L 465.621624 161.836101 
L 466.073537 161.566546 
L 467.429277 161.162214 
L 468.333104 160.926354 
L 468.785017 160.623105 
L 469.236931 160.522022 
L 469.688844 160.11769 
L 471.044584 159.848135 
L 471.948411 159.410108 
L 472.400324 158.870999 
L 474.207977 158.432972 
L 477.371371 157.759085 
L 477.823284 157.759085 
L 478.275197 157.556919 
L 480.082851 157.219976 
L 480.534764 157.01781 
L 482.342417 156.680866 
L 483.246244 156.276534 
L 484.150071 156.108063 
L 486.409638 155.535259 
L 488.217291 154.962455 
L 488.669204 154.861372 
L 489.121118 154.625511 
L 490.024944 154.389651 
L 490.928771 154.019013 
L 491.832598 153.68207 
L 492.284511 153.378821 
L 493.188338 153.109266 
L 496.803644 151.862575 
L 497.707471 151.795187 
L 499.515125 151.256077 
L 499.967038 150.986522 
L 500.870865 150.716968 
L 503.130431 149.672443 
L 503.582345 149.638748 
L 508.553391 147.852948 
L 510.812958 147.24645 
L 511.716785 146.808424 
L 513.072525 146.505174 
L 514.880178 145.022623 
L 516.687832 144.247653 
L 517.591658 143.843321 
L 520.303138 142.798797 
L 520.755052 142.495548 
L 523.014618 141.754272 
L 524.370358 140.979302 
L 524.822272 140.878219 
L 527.081838 139.631528 
L 528.437578 139.02503 
L 528.889492 138.688087 
L 529.793318 138.384838 
L 532.052885 137.23923 
L 533.408625 136.767509 
L 535.216279 136.026233 
L 536.572019 135.520818 
L 537.023932 135.352347 
L 537.927759 135.217569 
L 538.379672 134.91432 
L 540.187325 134.543682 
L 541.091152 134.173045 
L 542.898805 133.330686 
L 549.225592 130.56775 
L 550.581332 130.129723 
L 551.033246 129.826474 
L 551.937072 129.725391 
L 552.388986 129.422142 
L 553.292812 129.25367 
L 554.196639 128.815644 
L 554.648552 128.613478 
L 555.552379 128.377617 
L 556.456206 128.108063 
L 557.811946 127.602647 
L 559.167686 127.164621 
L 560.523426 126.861372 
L 562.331079 126.120096 
L 563.234906 125.614681 
L 565.042559 124.704934 
L 565.946386 124.502768 
L 566.398299 124.233213 
L 566.850213 124.13213 
L 568.205953 123.35716 
L 569.109779 122.986522 
L 570.917433 122.278941 
L 573.176999 121.503971 
L 574.080826 121.03225 
L 576.340393 120.25728 
L 579.051873 119.145367 
L 580.859526 118.303008 
L 585.37866 116.550903 
L 586.282486 116.112876 
L 586.7344 116.011793 
L 587.186313 115.775933 
L 588.993966 115.270517 
L 590.80162 113.787966 
L 591.253533 113.653189 
L 591.705446 113.383634 
L 593.061186 113.012996 
L 593.5131 112.676053 
L 593.965013 112.57497 
L 594.86884 112.002166 
L 596.22458 111.294585 
L 597.128407 110.923947 
L 597.58032 110.688087 
L 598.93606 110.384838 
L 601.195627 109.609868 
L 602.099453 109.306619 
L 603.455193 108.599037 
L 604.35902 108.161011 
L 605.262847 107.92515 
L 606.618587 107.284958 
L 610.685807 105.768712 
L 612.041547 104.926354 
L 612.49346 104.825271 
L 613.397287 104.387244 
L 614.301114 104.050301 
L 614.753027 103.645969 
L 615.656854 103.275331 
L 617.012594 102.80361 
L 617.464507 102.432972 
L 617.91642 102.399278 
L 618.820247 102.129723 
L 619.724074 101.826474 
L 620.175987 101.624308 
L 620.6279 101.556919 
L 621.98364 101.051504 
L 623.33938 100.546089 
L 625.147034 99.737425 
L 625.598947 99.670036 
L 629.214254 98.153791 
L 630.569994 97.715764 
L 631.473821 97.648375 
L 632.377647 97.277738 
L 635.089127 96.469073 
L 635.992954 96.435379 
L 639.608261 95.256077 
L 640.512087 94.784356 
L 640.964001 94.380024 
L 642.319741 93.57136 
L 643.223568 93.03225 
L 645.935048 92.156197 
L 646.386961 91.78556 
L 649.098441 90.639952 
L 650.906094 90.168231 
L 651.809921 89.763899 
L 652.261834 89.528039 
L 653.165661 89.258484 
L 653.617574 88.988929 
L 654.521401 88.820457 
L 658.136708 87.270517 
L 658.588621 87.203129 
L 659.040535 86.89988 
L 659.492448 86.731408 
L 659.944361 86.327076 
L 660.396275 86.259687 
L 662.203928 85.552106 
L 664.011581 85.114079 
L 664.463495 85.046691 
L 664.915408 84.844525 
L 665.367321 84.81083 
L 666.271148 84.507581 
L 666.723061 84.473887 
L 668.078801 83.934777 
L 669.886455 83.395668 
L 670.790281 82.721781 
L 672.597935 81.710951 
L 673.953675 81.23923 
L 677.568982 79.520818 
L 678.020895 79.284958 
L 678.472808 78.846931 
L 680.732375 78.240433 
L 682.088115 77.633935 
L 682.991942 77.398075 
L 683.443855 77.162214 
L 683.895768 76.791576 
L 685.703422 76.319856 
L 686.155335 75.982912 
L 692.030209 73.860168 
L 692.934035 73.691697 
L 695.193602 72.984116 
L 696.097429 72.613478 
L 697.001255 72.276534 
L 697.905082 72.040674 
L 698.356995 71.838508 
L 698.808909 71.838508 
L 699.712735 71.46787 
L 700.616562 70.928761 
L 702.876129 70.153791 
L 704.231869 69.68207 
L 704.683782 69.614681 
L 705.587609 69.244043 
L 706.943349 68.940794 
L 708.299089 68.502768 
L 708.751002 68.401685 
L 709.202916 68.098436 
L 710.106742 67.89627 
L 719.145009 65.301805 
L 721.404576 64.897473 
L 722.308403 64.459446 
L 723.212229 64.02142 
L 724.567969 63.617088 
L 729.087103 61.932371 
L 729.539016 61.595427 
L 730.894756 61.292178 
L 731.798583 61.022623 
L 732.702409 60.584597 
L 733.154323 60.180265 
L 734.058149 59.877016 
L 734.510063 59.607461 
L 735.413889 59.506378 
L 738.577283 58.630325 
L 739.933023 58.36077 
L 742.644503 57.451023 
L 744.452156 56.57497 
L 746.711723 55.8 
L 747.163636 55.8 
L 747.163636 55.8 
" clip-path="url(#p6539c1adf2)" style="fill: none; stroke: #1f77b4; stroke-width: 1.5; stroke-linecap: square"/>
   </g>
   <g id="line2d_34">
    <path d="M 138.888277 307.8 
L 142.955497 307.698917 
L 146.570804 307.530445 
L 148.378457 307.530445 
L 148.830371 307.395668 
L 151.089937 307.294585 
L 153.801417 306.991336 
L 156.512897 306.890253 
L 157.416724 306.78917 
L 160.580117 306.654392 
L 163.743511 306.553309 
L 166.003078 306.485921 
L 171.877951 306.384838 
L 174.137518 306.317449 
L 178.204738 306.216366 
L 180.012391 306.182671 
L 184.531525 306.081588 
L 186.339178 305.913117 
L 188.146831 305.879422 
L 190.858311 305.778339 
L 192.665965 305.744645 
L 194.925531 305.677256 
L 196.733185 305.508785 
L 200.800405 305.407702 
L 201.704232 305.340313 
L 203.511885 305.23923 
L 206.223365 305.138147 
L 208.031018 305.037064 
L 216.165459 304.531649 
L 219.328852 304.430566 
L 220.684592 304.295788 
L 222.944159 304.194705 
L 227.463292 303.958845 
L 231.982426 303.891456 
L 233.790079 303.68929 
L 235.597732 303.588207 
L 240.568779 303.116486 
L 243.732173 302.745848 
L 245.087913 302.67846 
L 248.703219 302.206739 
L 251.414699 302.13935 
L 252.770439 302.004573 
L 254.126179 301.90349 
L 266.779753 300.926354 
L 267.68358 300.757882 
L 270.39506 300.656799 
L 277.625673 300.218773 
L 280.789067 300.11769 
L 282.59672 299.915523 
L 284.856287 299.81444 
L 287.567767 299.713357 
L 289.827333 299.612274 
L 291.634987 299.57858 
L 293.894554 299.511191 
L 294.79838 299.376414 
L 301.125167 299.275331 
L 302.028994 299.174248 
L 307.451954 299.073165 
L 311.519174 298.870999 
L 314.682567 298.769916 
L 316.490221 298.56775 
L 319.653614 298.466667 
L 320.557441 298.298195 
L 322.817007 298.230806 
L 327.336141 298.163418 
L 329.143794 297.994946 
L 330.951448 297.961252 
L 332.307188 297.860168 
L 334.114841 297.691697 
L 338.633974 297.455836 
L 343.153108 297.354753 
L 347.220328 297.152587 
L 348.576068 297.118893 
L 349.479895 296.984116 
L 351.739461 296.883032 
L 352.643288 296.815644 
L 353.547115 296.748255 
L 354.450941 296.680866 
L 358.518162 296.613478 
L 359.873902 296.512395 
L 372.075562 295.70373 
L 374.335129 295.602647 
L 376.594695 295.535259 
L 382.921482 295.434176 
L 383.825309 295.299398 
L 390.152096 295.198315 
L 394.671229 294.962455 
L 395.575056 294.928761 
L 396.478882 294.827677 
L 398.738449 294.726594 
L 400.998016 294.659206 
L 403.257583 294.558123 
L 405.517149 294.490734 
L 409.584369 294.389651 
L 412.295849 294.288568 
L 418.622636 294.187485 
L 423.593683 293.91793 
L 425.401336 293.850542 
L 426.757076 293.749458 
L 433.083863 293.648375 
L 435.795343 293.547292 
L 443.929783 293.446209 
L 445.737437 293.412515 
L 451.160397 293.345126 
L 452.064224 293.277738 
L 458.39101 293.176655 
L 460.198664 293.14296 
L 471.948411 293.041877 
L 474.659891 292.940794 
L 493.640251 292.839711 
L 495.899818 292.772323 
L 507.649565 292.704934 
L 508.553391 292.637545 
L 510.812958 292.570156 
L 512.168698 292.435379 
L 514.880178 292.334296 
L 518.043572 292.199519 
L 522.110792 292.098436 
L 524.370358 292.031047 
L 527.533752 291.929964 
L 531.149059 291.761492 
L 533.408625 291.660409 
L 535.216279 291.626715 
L 539.283499 291.525632 
L 541.091152 291.491937 
L 546.966026 291.390854 
L 548.773679 291.35716 
L 551.033246 291.256077 
L 553.744726 291.154994 
L 556.908119 291.087605 
L 557.811946 291.020217 
L 568.657866 290.919134 
L 574.532739 290.58219 
L 576.792306 290.514801 
L 577.696133 290.413718 
L 578.59996 290.34633 
L 582.215266 290.245247 
L 584.926746 290.144164 
L 589.44588 290.043081 
L 591.705446 289.80722 
L 596.22458 289.706137 
L 597.128407 289.605054 
L 601.64754 289.503971 
L 603.907107 289.436582 
L 608.878153 289.402888 
L 609.78198 289.301805 
L 614.753027 289.200722 
L 615.656854 289.133333 
L 625.598947 289.03225 
L 628.310427 288.931167 
L 635.089127 288.830084 
L 636.896781 288.79639 
L 640.964001 288.729001 
L 641.867827 288.627918 
L 647.742701 288.526835 
L 650.002268 288.459446 
L 658.136708 288.358363 
L 659.492448 288.25728 
L 660.848188 288.156197 
L 662.203928 288.055114 
L 668.982628 287.954031 
L 671.694108 287.852948 
L 683.895768 287.751865 
L 687.962988 287.549699 
L 693.385949 287.448616 
L 694.289775 287.381227 
L 701.068475 287.313839 
L 701.972302 287.24645 
L 706.943349 287.145367 
L 708.751002 287.111673 
L 715.077789 287.01059 
L 717.789269 286.909507 
L 725.471796 286.808424 
L 727.279449 286.774729 
L 731.346669 286.673646 
L 734.961976 286.505174 
L 739.933023 286.404091 
L 743.096416 286.269314 
L 747.163636 286.201925 
L 747.163636 286.201925 
" clip-path="url(#p6539c1adf2)" style="fill: none; stroke: #ff7f0e; stroke-width: 1.5; stroke-linecap: square"/>
   </g>
   <g id="patch_3">
    <path d="M 108 320.4 
L 108 43.2 
" style="fill: none; stroke: #a9a9a9; stroke-width: 0.8; stroke-linejoin: miter; stroke-linecap: square"/>
   </g>
   <g id="patch_4">
    <path d="M 777.6 320.4 
L 777.6 43.2 
" style="fill: none"/>
   </g>
   <g id="patch_5">
    <path d="M 108 320.4 
L 777.6 320.4 
" style="fill: none; stroke: #a9a9a9; stroke-width: 0.8; stroke-linejoin: miter; stroke-linecap: square"/>
   </g>
   <g id="patch_6">
    <path d="M 108 43.2 
L 777.6 43.2 
" style="fill: none"/>
   </g>
   <g id="text_17">
    <!-- get_subscribe history -->
    <g style="fill: #a9a9a9" transform="translate(378.6075 37.2) scale(0.12 -0.12)">
     <defs>
      <path id="DejaVuSans-67" d="M 2906 1791 
Q 2906 2416 2648 2759 
Q 2391 3103 1925 3103 
Q 1463 3103 1205 2759 
Q 947 2416 947 1791 
Q 947 1169 1205 825 
Q 1463 481 1925 481 
Q 2391 481 2648 825 
Q 2906 1169 2906 1791 
z
M 3481 434 
Q 3481 -459 3084 -895 
Q 2688 -1331 1869 -1331 
Q 1566 -1331 1297 -1286 
Q 1028 -1241 775 -1147 
L 775 -588 
Q 1028 -725 1275 -790 
Q 1522 -856 1778 -856 
Q 2344 -856 2625 -561 
Q 2906 -266 2906 331 
L 2906 616 
Q 2728 306 2450 153 
Q 2172 0 1784 0 
Q 1141 0 747 490 
Q 353 981 353 1791 
Q 353 2603 747 3093 
Q 1141 3584 1784 3584 
Q 2172 3584 2450 3431 
Q 2728 3278 2906 2969 
L 2906 3500 
L 3481 3500 
L 3481 434 
z
" transform="scale(0.015625)"/>
      <path id="DejaVuSans-65" d="M 3597 1894 
L 3597 1613 
L 953 1613 
Q 991 1019 1311 708 
Q 1631 397 2203 397 
Q 2534 397 2845 478 
Q 3156 559 3463 722 
L 3463 178 
Q 3153 47 2828 -22 
Q 2503 -91 2169 -91 
Q 1331 -91 842 396 
Q 353 884 353 1716 
Q 353 2575 817 3079 
Q 1281 3584 2069 3584 
Q 2775 3584 3186 3129 
Q 3597 2675 3597 1894 
z
M 3022 2063 
Q 3016 2534 2758 2815 
Q 2500 3097 2075 3097 
Q 1594 3097 1305 2825 
Q 1016 2553 972 2059 
L 3022 2063 
z
" transform="scale(0.015625)"/>
      <path id="DejaVuSans-74" d="M 1172 4494 
L 1172 3500 
L 2356 3500 
L 2356 3053 
L 1172 3053 
L 1172 1153 
Q 1172 725 1289 603 
Q 1406 481 1766 481 
L 2356 481 
L 2356 0 
L 1766 0 
Q 1100 0 847 248 
Q 594 497 594 1153 
L 594 3053 
L 172 3053 
L 172 3500 
L 594 3500 
L 594 4494 
L 1172 4494 
z
" transform="scale(0.015625)"/>
      <path id="DejaVuSans-5f" d="M 3263 -1063 
L 3263 -1509 
L -63 -1509 
L -63 -1063 
L 3263 -1063 
z
" transform="scale(0.015625)"/>
      <path id="DejaVuSans-73" d="M 2834 3397 
L 2834 2853 
Q 2591 2978 2328 3040 
Q 2066 3103 1784 3103 
Q 1356 3103 1142 2972 
Q 928 2841 928 2578 
Q 928 2378 1081 2264 
Q 1234 2150 1697 2047 
L 1894 2003 
Q 2506 1872 2764 1633 
Q 3022 1394 3022 966 
Q 3022 478 2636 193 
Q 2250 -91 1575 -91 
Q 1294 -91 989 -36 
Q 684 19 347 128 
L 347 722 
Q 666 556 975 473 
Q 1284 391 1588 391 
Q 1994 391 2212 530 
Q 2431 669 2431 922 
Q 2431 1156 2273 1281 
Q 2116 1406 1581 1522 
L 1381 1569 
Q 847 1681 609 1914 
Q 372 2147 372 2553 
Q 372 3047 722 3315 
Q 1072 3584 1716 3584 
Q 2034 3584 2315 3537 
Q 2597 3491 2834 3397 
z
" transform="scale(0.015625)"/>
      <path id="DejaVuSans-75" d="M 544 1381 
L 544 3500 
L 1119 3500 
L 1119 1403 
Q 1119 906 1312 657 
Q 1506 409 1894 409 
Q 2359 409 2629 706 
Q 2900 1003 2900 1516 
L 2900 3500 
L 3475 3500 
L 3475 0 
L 2900 0 
L 2900 538 
Q 2691 219 2414 64 
Q 2138 -91 1772 -91 
Q 1169 -91 856 284 
Q 544 659 544 1381 
z
M 1991 3584 
L 1991 3584 
z
" transform="scale(0.015625)"/>
      <path id="DejaVuSans-62" d="M 3116 1747 
Q 3116 2381 2855 2742 
Q 2594 3103 2138 3103 
Q 1681 3103 1420 2742 
Q 1159 2381 1159 1747 
Q 1159 1113 1420 752 
Q 1681 391 2138 391 
Q 2594 391 2855 752 
Q 3116 1113 3116 1747 
z
M 1159 2969 
Q 1341 3281 1617 3432 
Q 1894 3584 2278 3584 
Q 2916 3584 3314 3078 
Q 3713 2572 3713 1747 
Q 3713 922 3314 415 
Q 2916 -91 2278 -91 
Q 1894 -91 1617 61 
Q 1341 213 1159 525 
L 1159 0 
L 581 0 
L 581 4863 
L 1159 4863 
L 1159 2969 
z
" transform="scale(0.015625)"/>
      <path id="DejaVuSans-63" d="M 3122 3366 
L 3122 2828 
Q 2878 2963 2633 3030 
Q 2388 3097 2138 3097 
Q 1578 3097 1268 2742 
Q 959 2388 959 1747 
Q 959 1106 1268 751 
Q 1578 397 2138 397 
Q 2388 397 2633 464 
Q 2878 531 3122 666 
L 3122 134 
Q 2881 22 2623 -34 
Q 2366 -91 2075 -91 
Q 1284 -91 818 406 
Q 353 903 353 1747 
Q 353 2603 823 3093 
Q 1294 3584 2113 3584 
Q 2378 3584 2631 3529 
Q 2884 3475 3122 3366 
z
" transform="scale(0.015625)"/>
      <path id="DejaVuSans-72" d="M 2631 2963 
Q 2534 3019 2420 3045 
Q 2306 3072 2169 3072 
Q 1681 3072 1420 2755 
Q 1159 2438 1159 1844 
L 1159 0 
L 581 0 
L 581 3500 
L 1159 3500 
L 1159 2956 
Q 1341 3275 1631 3429 
Q 1922 3584 2338 3584 
Q 2397 3584 2469 3576 
Q 2541 3569 2628 3553 
L 2631 2963 
z
" transform="scale(0.015625)"/>
      <path id="DejaVuSans-69" d="M 603 3500 
L 1178 3500 
L 1178 0 
L 603 0 
L 603 3500 
z
M 603 4863 
L 1178 4863 
L 1178 4134 
L 603 4134 
L 603 4863 
z
" transform="scale(0.015625)"/>
      <path id="DejaVuSans-20" transform="scale(0.015625)"/>
      <path id="DejaVuSans-68" d="M 3513 2113 
L 3513 0 
L 2938 0 
L 2938 2094 
Q 2938 2591 2744 2837 
Q 2550 3084 2163 3084 
Q 1697 3084 1428 2787 
Q 1159 2491 1159 1978 
L 1159 0 
L 581 0 
L 581 4863 
L 1159 4863 
L 1159 2956 
Q 1366 3272 1645 3428 
Q 1925 3584 2291 3584 
Q 2894 3584 3203 3211 
Q 3513 2838 3513 2113 
z
" transform="scale(0.015625)"/>
      <path id="DejaVuSans-6f" d="M 1959 3097 
Q 1497 3097 1228 2736 
Q 959 2375 959 1747 
Q 959 1119 1226 758 
Q 1494 397 1959 397 
Q 2419 397 2687 759 
Q 2956 1122 2956 1747 
Q 2956 2369 2687 2733 
Q 2419 3097 1959 3097 
z
M 1959 3584 
Q 2709 3584 3137 3096 
Q 3566 2609 3566 1747 
Q 3566 888 3137 398 
Q 2709 -91 1959 -91 
Q 1206 -91 779 398 
Q 353 888 353 1747 
Q 353 2609 779 3096 
Q 1206 3584 1959 3584 
z
" transform="scale(0.015625)"/>
      <path id="DejaVuSans-79" d="M 2059 -325 
Q 1816 -950 1584 -1140 
Q 1353 -1331 966 -1331 
L 506 -1331 
L 506 -850 
L 844 -850 
Q 1081 -850 1212 -737 
Q 1344 -625 1503 -206 
L 1606 56 
L 191 3500 
L 800 3500 
L 1894 763 
L 2988 3500 
L 3597 3500 
L 2059 -325 
z
" transform="scale(0.015625)"/>
     </defs>
     <use xlink:href="#DejaVuSans-67"/>
     <use xlink:href="#DejaVuSans-65" transform="translate(63.476562 0)"/>
     <use xlink:href="#DejaVuSans-74" transform="translate(125 0)"/>
     <use xlink:href="#DejaVuSans-5f" transform="translate(164.208984 0)"/>
     <use xlink:href="#DejaVuSans-73" transform="translate(214.208984 0)"/>
     <use xlink:href="#DejaVuSans-75" transform="translate(266.308594 0)"/>
     <use xlink:href="#DejaVuSans-62" transform="translate(329.6875 0)"/>
     <use xlink:href="#DejaVuSans-73" transform="translate(393.164062 0)"/>
     <use xlink:href="#DejaVuSans-63" transform="translate(445.263672 0)"/>
     <use xlink:href="#DejaVuSans-72" transform="translate(500.244141 0)"/>
     <use xlink:href="#DejaVuSans-69" transform="translate(541.357422 0)"/>
     <use xlink:href="#DejaVuSans-62" transform="translate(569.140625 0)"/>
     <use xlink:href="#DejaVuSans-65" transform="translate(632.617188 0)"/>
     <use xlink:href="#DejaVuSans-20" transform="translate(694.140625 0)"/>
     <use xlink:href="#DejaVuSans-68" transform="translate(725.927734 0)"/>
     <use xlink:href="#DejaVuSans-69" transform="translate(789.306641 0)"/>
     <use xlink:href="#DejaVuSans-73" transform="translate(817.089844 0)"/>
     <use xlink:href="#DejaVuSans-74" transform="translate(869.189453 0)"/>
     <use xlink:href="#DejaVuSans-6f" transform="translate(908.398438 0)"/>
     <use xlink:href="#DejaVuSans-72" transform="translate(969.580078 0)"/>
     <use xlink:href="#DejaVuSans-79" transform="translate(1010.693359 0)"/>
    </g>
   </g>
   <g id="legend_1">
    <g id="line2d_35">
     <path d="M 815.08 328.498438 
L 825.08 328.498438 
L 835.08 328.498438 
" style="fill: none; stroke: #1f77b4; stroke-width: 1.5; stroke-linecap: square"/>
    </g>
    <g id="text_18">
     <!-- star -->
     <g style="fill: #a9a9a9" transform="translate(843.08 331.998438) scale(0.1 -0.1)">
      <defs>
       <path id="DejaVuSans-61" d="M 2194 1759 
Q 1497 1759 1228 1600 
Q 959 1441 959 1056 
Q 959 750 1161 570 
Q 1363 391 1709 391 
Q 2188 391 2477 730 
Q 2766 1069 2766 1631 
L 2766 1759 
L 2194 1759 
z
M 3341 1997 
L 3341 0 
L 2766 0 
L 2766 531 
Q 2569 213 2275 61 
Q 1981 -91 1556 -91 
Q 1019 -91 701 211 
Q 384 513 384 1019 
Q 384 1609 779 1909 
Q 1175 2209 1959 2209 
L 2766 2209 
L 2766 2266 
Q 2766 2663 2505 2880 
Q 2244 3097 1772 3097 
Q 1472 3097 1187 3025 
Q 903 2953 641 2809 
L 641 3341 
Q 956 3463 1253 3523 
Q 1550 3584 1831 3584 
Q 2591 3584 2966 3190 
Q 3341 2797 3341 1997 
z
" transform="scale(0.015625)"/>
      </defs>
      <use xlink:href="#DejaVuSans-73"/>
      <use xlink:href="#DejaVuSans-74" transform="translate(52.099609 0)"/>
      <use xlink:href="#DejaVuSans-61" transform="translate(91.308594 0)"/>
      <use xlink:href="#DejaVuSans-72" transform="translate(152.587891 0)"/>
     </g>
    </g>
    <g id="line2d_36">
     <path d="M 815.08 343.176562 
L 825.08 343.176562 
L 835.08 343.176562 
" style="fill: none; stroke: #ff7f0e; stroke-width: 1.5; stroke-linecap: square"/>
    </g>
    <g id="text_19">
     <!-- fork -->
     <g style="fill: #a9a9a9" transform="translate(843.08 346.676562) scale(0.1 -0.1)">
      <defs>
       <path id="DejaVuSans-66" d="M 2375 4863 
L 2375 4384 
L 1825 4384 
Q 1516 4384 1395 4259 
Q 1275 4134 1275 3809 
L 1275 3500 
L 2222 3500 
L 2222 3053 
L 1275 3053 
L 1275 0 
L 697 0 
L 697 3053 
L 147 3053 
L 147 3500 
L 697 3500 
L 697 3744 
Q 697 4328 969 4595 
Q 1241 4863 1831 4863 
L 2375 4863 
z
" transform="scale(0.015625)"/>
       <path id="DejaVuSans-6b" d="M 581 4863 
L 1159 4863 
L 1159 1991 
L 2875 3500 
L 3609 3500 
L 1753 1863 
L 3688 0 
L 2938 0 
L 1159 1709 
L 1159 0 
L 581 0 
L 581 4863 
z
" transform="scale(0.015625)"/>
      </defs>
      <use xlink:href="#DejaVuSans-66"/>
      <use xlink:href="#DejaVuSans-6f" transform="translate(35.205078 0)"/>
      <use xlink:href="#DejaVuSans-72" transform="translate(96.386719 0)"/>
      <use xlink:href="#DejaVuSans-6b" transform="translate(137.5 0)"/>
     </g>
    </g>
   </g>
  </g>
 </g>
 <defs>
  <clipPath id="p6539c1adf2">
   <rect x="108" y="43.2" width="669.6" height="277.2"/>
  </clipPath>
 </defs>
</svg>
