<?xml version="1.0" encoding="utf-8" standalone="no"?>
<!DOCTYPE svg PUBLIC "-//W3C//DTD SVG 1.1//EN"
  "http://www.w3.org/Graphics/SVG/1.1/DTD/svg11.dtd">
<svg xmlns:xlink="http://www.w3.org/1999/xlink" width="864pt" height="360pt" viewBox="0 0 864 360" xmlns="http://www.w3.org/2000/svg" version="1.1">
 <metadata>
  <rdf:RDF xmlns:dc="http://purl.org/dc/elements/1.1/" xmlns:cc="http://creativecommons.org/ns#" xmlns:rdf="http://www.w3.org/1999/02/22-rdf-syntax-ns#">
   <cc:Work>
    <dc:type rdf:resource="http://purl.org/dc/dcmitype/StillImage"/>
    <dc:date>2025-03-31T20:06:54.676387</dc:date>
    <dc:format>image/svg+xml</dc:format>
    <dc:creator>
     <cc:Agent>
      <dc:title>Matplotlib v3.10.1, https://matplotlib.org/</dc:title>
     </cc:Agent>
    </dc:creator>
   </cc:Work>
  </rdf:RDF>
 </metadata>
 <defs>
  <style type="text/css">*{stroke-linejoin: round; stroke-linecap: butt}</style>
 </defs>
 <g id="figure_1">
  <g id="patch_1">
   <path d="M 0 360 
L 864 360 
L 864 0 
L 0 0 
L 0 360 
z
" style="fill: none; opacity: 0"/>
  </g>
  <g id="axes_1">
   <g id="patch_2">
    <path d="M 108 320.4 
L 777.6 320.4 
L 777.6 43.2 
L 108 43.2 
L 108 320.4 
z
" style="fill: none; opacity: 0"/>
   </g>
   <g id="matplotlib.axis_1">
    <g id="xtick_1">
     <g id="line2d_1">
      <path d="M 128.034635 320.4 
L 128.034635 43.2 
" clip-path="url(#pf1ac6cd696)" style="fill: none; stroke-dasharray: 5.12,1.28,0.8,1.28; stroke-dashoffset: 0; stroke: #b0b0b0; stroke-width: 0.8"/>
     </g>
     <g id="line2d_2">
      <defs>
       <path id="me819ceacaf" d="M 0 0 
L 0 3.5 
" style="stroke: #a9a9a9; stroke-width: 0.8"/>
      </defs>
      <g>
       <use xlink:href="#me819ceacaf" x="128.034635" y="320.4" style="fill: #a9a9a9; stroke: #a9a9a9; stroke-width: 0.8"/>
      </g>
     </g>
     <g id="text_1">
      <!-- 2021-07 -->
      <g style="fill: #a9a9a9" transform="translate(107.143228 334.998438) scale(0.1 -0.1)">
       <defs>
        <path id="DejaVuSans-32" d="M 1228 531 
L 3431 531 
L 3431 0 
L 469 0 
L 469 531 
Q 828 903 1448 1529 
Q 2069 2156 2228 2338 
Q 2531 2678 2651 2914 
Q 2772 3150 2772 3378 
Q 2772 3750 2511 3984 
Q 2250 4219 1831 4219 
Q 1534 4219 1204 4116 
Q 875 4013 500 3803 
L 500 4441 
Q 881 4594 1212 4672 
Q 1544 4750 1819 4750 
Q 2544 4750 2975 4387 
Q 3406 4025 3406 3419 
Q 3406 3131 3298 2873 
Q 3191 2616 2906 2266 
Q 2828 2175 2409 1742 
Q 1991 1309 1228 531 
z
" transform="scale(0.015625)"/>
        <path id="DejaVuSans-30" d="M 2034 4250 
Q 1547 4250 1301 3770 
Q 1056 3291 1056 2328 
Q 1056 1369 1301 889 
Q 1547 409 2034 409 
Q 2525 409 2770 889 
Q 3016 1369 3016 2328 
Q 3016 3291 2770 3770 
Q 2525 4250 2034 4250 
z
M 2034 4750 
Q 2819 4750 3233 4129 
Q 3647 3509 3647 2328 
Q 3647 1150 3233 529 
Q 2819 -91 2034 -91 
Q 1250 -91 836 529 
Q 422 1150 422 2328 
Q 422 3509 836 4129 
Q 1250 4750 2034 4750 
z
" transform="scale(0.015625)"/>
        <path id="DejaVuSans-31" d="M 794 531 
L 1825 531 
L 1825 4091 
L 703 3866 
L 703 4441 
L 1819 4666 
L 2450 4666 
L 2450 531 
L 3481 531 
L 3481 0 
L 794 0 
L 794 531 
z
" transform="scale(0.015625)"/>
        <path id="DejaVuSans-2d" d="M 313 2009 
L 1997 2009 
L 1997 1497 
L 313 1497 
L 313 2009 
z
" transform="scale(0.015625)"/>
        <path id="DejaVuSans-37" d="M 525 4666 
L 3525 4666 
L 3525 4397 
L 1831 0 
L 1172 0 
L 2766 4134 
L 525 4134 
L 525 4666 
z
" transform="scale(0.015625)"/>
       </defs>
       <use xlink:href="#DejaVuSans-32"/>
       <use xlink:href="#DejaVuSans-30" transform="translate(63.623047 0)"/>
       <use xlink:href="#DejaVuSans-32" transform="translate(127.246094 0)"/>
       <use xlink:href="#DejaVuSans-31" transform="translate(190.869141 0)"/>
       <use xlink:href="#DejaVuSans-2d" transform="translate(254.492188 0)"/>
       <use xlink:href="#DejaVuSans-30" transform="translate(290.576172 0)"/>
       <use xlink:href="#DejaVuSans-37" transform="translate(354.199219 0)"/>
      </g>
     </g>
    </g>
    <g id="xtick_2">
     <g id="line2d_3">
      <path d="M 211.248467 320.4 
L 211.248467 43.2 
" clip-path="url(#pf1ac6cd696)" style="fill: none; stroke-dasharray: 5.12,1.28,0.8,1.28; stroke-dashoffset: 0; stroke: #b0b0b0; stroke-width: 0.8"/>
     </g>
     <g id="line2d_4">
      <g>
       <use xlink:href="#me819ceacaf" x="211.248467" y="320.4" style="fill: #a9a9a9; stroke: #a9a9a9; stroke-width: 0.8"/>
      </g>
     </g>
     <g id="text_2">
      <!-- 2022-01 -->
      <g style="fill: #a9a9a9" transform="translate(190.357061 334.998438) scale(0.1 -0.1)">
       <use xlink:href="#DejaVuSans-32"/>
       <use xlink:href="#DejaVuSans-30" transform="translate(63.623047 0)"/>
       <use xlink:href="#DejaVuSans-32" transform="translate(127.246094 0)"/>
       <use xlink:href="#DejaVuSans-32" transform="translate(190.869141 0)"/>
       <use xlink:href="#DejaVuSans-2d" transform="translate(254.492188 0)"/>
       <use xlink:href="#DejaVuSans-30" transform="translate(290.576172 0)"/>
       <use xlink:href="#DejaVuSans-31" transform="translate(354.199219 0)"/>
      </g>
     </g>
    </g>
    <g id="xtick_3">
     <g id="line2d_5">
      <path d="M 293.105552 320.4 
L 293.105552 43.2 
" clip-path="url(#pf1ac6cd696)" style="fill: none; stroke-dasharray: 5.12,1.28,0.8,1.28; stroke-dashoffset: 0; stroke: #b0b0b0; stroke-width: 0.8"/>
     </g>
     <g id="line2d_6">
      <g>
       <use xlink:href="#me819ceacaf" x="293.105552" y="320.4" style="fill: #a9a9a9; stroke: #a9a9a9; stroke-width: 0.8"/>
      </g>
     </g>
     <g id="text_3">
      <!-- 2022-07 -->
      <g style="fill: #a9a9a9" transform="translate(272.214146 334.998438) scale(0.1 -0.1)">
       <use xlink:href="#DejaVuSans-32"/>
       <use xlink:href="#DejaVuSans-30" transform="translate(63.623047 0)"/>
       <use xlink:href="#DejaVuSans-32" transform="translate(127.246094 0)"/>
       <use xlink:href="#DejaVuSans-32" transform="translate(190.869141 0)"/>
       <use xlink:href="#DejaVuSans-2d" transform="translate(254.492188 0)"/>
       <use xlink:href="#DejaVuSans-30" transform="translate(290.576172 0)"/>
       <use xlink:href="#DejaVuSans-37" transform="translate(354.199219 0)"/>
      </g>
     </g>
    </g>
    <g id="xtick_4">
     <g id="line2d_7">
      <path d="M 376.319384 320.4 
L 376.319384 43.2 
" clip-path="url(#pf1ac6cd696)" style="fill: none; stroke-dasharray: 5.12,1.28,0.8,1.28; stroke-dashoffset: 0; stroke: #b0b0b0; stroke-width: 0.8"/>
     </g>
     <g id="line2d_8">
      <g>
       <use xlink:href="#me819ceacaf" x="376.319384" y="320.4" style="fill: #a9a9a9; stroke: #a9a9a9; stroke-width: 0.8"/>
      </g>
     </g>
     <g id="text_4">
      <!-- 2023-01 -->
      <g style="fill: #a9a9a9" transform="translate(355.427978 334.998438) scale(0.1 -0.1)">
       <defs>
        <path id="DejaVuSans-33" d="M 2597 2516 
Q 3050 2419 3304 2112 
Q 3559 1806 3559 1356 
Q 3559 666 3084 287 
Q 2609 -91 1734 -91 
Q 1441 -91 1130 -33 
Q 819 25 488 141 
L 488 750 
Q 750 597 1062 519 
Q 1375 441 1716 441 
Q 2309 441 2620 675 
Q 2931 909 2931 1356 
Q 2931 1769 2642 2001 
Q 2353 2234 1838 2234 
L 1294 2234 
L 1294 2753 
L 1863 2753 
Q 2328 2753 2575 2939 
Q 2822 3125 2822 3475 
Q 2822 3834 2567 4026 
Q 2313 4219 1838 4219 
Q 1578 4219 1281 4162 
Q 984 4106 628 3988 
L 628 4550 
Q 988 4650 1302 4700 
Q 1616 4750 1894 4750 
Q 2613 4750 3031 4423 
Q 3450 4097 3450 3541 
Q 3450 3153 3228 2886 
Q 3006 2619 2597 2516 
z
" transform="scale(0.015625)"/>
       </defs>
       <use xlink:href="#DejaVuSans-32"/>
       <use xlink:href="#DejaVuSans-30" transform="translate(63.623047 0)"/>
       <use xlink:href="#DejaVuSans-32" transform="translate(127.246094 0)"/>
       <use xlink:href="#DejaVuSans-33" transform="translate(190.869141 0)"/>
       <use xlink:href="#DejaVuSans-2d" transform="translate(254.492188 0)"/>
       <use xlink:href="#DejaVuSans-30" transform="translate(290.576172 0)"/>
       <use xlink:href="#DejaVuSans-31" transform="translate(354.199219 0)"/>
      </g>
     </g>
    </g>
    <g id="xtick_5">
     <g id="line2d_9">
      <path d="M 458.176469 320.4 
L 458.176469 43.2 
" clip-path="url(#pf1ac6cd696)" style="fill: none; stroke-dasharray: 5.12,1.28,0.8,1.28; stroke-dashoffset: 0; stroke: #b0b0b0; stroke-width: 0.8"/>
     </g>
     <g id="line2d_10">
      <g>
       <use xlink:href="#me819ceacaf" x="458.176469" y="320.4" style="fill: #a9a9a9; stroke: #a9a9a9; stroke-width: 0.8"/>
      </g>
     </g>
     <g id="text_5">
      <!-- 2023-07 -->
      <g style="fill: #a9a9a9" transform="translate(437.285063 334.998438) scale(0.1 -0.1)">
       <use xlink:href="#DejaVuSans-32"/>
       <use xlink:href="#DejaVuSans-30" transform="translate(63.623047 0)"/>
       <use xlink:href="#DejaVuSans-32" transform="translate(127.246094 0)"/>
       <use xlink:href="#DejaVuSans-33" transform="translate(190.869141 0)"/>
       <use xlink:href="#DejaVuSans-2d" transform="translate(254.492188 0)"/>
       <use xlink:href="#DejaVuSans-30" transform="translate(290.576172 0)"/>
       <use xlink:href="#DejaVuSans-37" transform="translate(354.199219 0)"/>
      </g>
     </g>
    </g>
    <g id="xtick_6">
     <g id="line2d_11">
      <path d="M 541.390301 320.4 
L 541.390301 43.2 
" clip-path="url(#pf1ac6cd696)" style="fill: none; stroke-dasharray: 5.12,1.28,0.8,1.28; stroke-dashoffset: 0; stroke: #b0b0b0; stroke-width: 0.8"/>
     </g>
     <g id="line2d_12">
      <g>
       <use xlink:href="#me819ceacaf" x="541.390301" y="320.4" style="fill: #a9a9a9; stroke: #a9a9a9; stroke-width: 0.8"/>
      </g>
     </g>
     <g id="text_6">
      <!-- 2024-01 -->
      <g style="fill: #a9a9a9" transform="translate(520.498895 334.998438) scale(0.1 -0.1)">
       <defs>
        <path id="DejaVuSans-34" d="M 2419 4116 
L 825 1625 
L 2419 1625 
L 2419 4116 
z
M 2253 4666 
L 3047 4666 
L 3047 1625 
L 3713 1625 
L 3713 1100 
L 3047 1100 
L 3047 0 
L 2419 0 
L 2419 1100 
L 313 1100 
L 313 1709 
L 2253 4666 
z
" transform="scale(0.015625)"/>
       </defs>
       <use xlink:href="#DejaVuSans-32"/>
       <use xlink:href="#DejaVuSans-30" transform="translate(63.623047 0)"/>
       <use xlink:href="#DejaVuSans-32" transform="translate(127.246094 0)"/>
       <use xlink:href="#DejaVuSans-34" transform="translate(190.869141 0)"/>
       <use xlink:href="#DejaVuSans-2d" transform="translate(254.492188 0)"/>
       <use xlink:href="#DejaVuSans-30" transform="translate(290.576172 0)"/>
       <use xlink:href="#DejaVuSans-31" transform="translate(354.199219 0)"/>
      </g>
     </g>
    </g>
    <g id="xtick_7">
     <g id="line2d_13">
      <path d="M 623.699635 320.4 
L 623.699635 43.2 
" clip-path="url(#pf1ac6cd696)" style="fill: none; stroke-dasharray: 5.12,1.28,0.8,1.28; stroke-dashoffset: 0; stroke: #b0b0b0; stroke-width: 0.8"/>
     </g>
     <g id="line2d_14">
      <g>
       <use xlink:href="#me819ceacaf" x="623.699635" y="320.4" style="fill: #a9a9a9; stroke: #a9a9a9; stroke-width: 0.8"/>
      </g>
     </g>
     <g id="text_7">
      <!-- 2024-07 -->
      <g style="fill: #a9a9a9" transform="translate(602.808229 334.998438) scale(0.1 -0.1)">
       <use xlink:href="#DejaVuSans-32"/>
       <use xlink:href="#DejaVuSans-30" transform="translate(63.623047 0)"/>
       <use xlink:href="#DejaVuSans-32" transform="translate(127.246094 0)"/>
       <use xlink:href="#DejaVuSans-34" transform="translate(190.869141 0)"/>
       <use xlink:href="#DejaVuSans-2d" transform="translate(254.492188 0)"/>
       <use xlink:href="#DejaVuSans-30" transform="translate(290.576172 0)"/>
       <use xlink:href="#DejaVuSans-37" transform="translate(354.199219 0)"/>
      </g>
     </g>
    </g>
    <g id="xtick_8">
     <g id="line2d_15">
      <path d="M 706.913468 320.4 
L 706.913468 43.2 
" clip-path="url(#pf1ac6cd696)" style="fill: none; stroke-dasharray: 5.12,1.28,0.8,1.28; stroke-dashoffset: 0; stroke: #b0b0b0; stroke-width: 0.8"/>
     </g>
     <g id="line2d_16">
      <g>
       <use xlink:href="#me819ceacaf" x="706.913468" y="320.4" style="fill: #a9a9a9; stroke: #a9a9a9; stroke-width: 0.8"/>
      </g>
     </g>
     <g id="text_8">
      <!-- 2025-01 -->
      <g style="fill: #a9a9a9" transform="translate(686.022061 334.998438) scale(0.1 -0.1)">
       <defs>
        <path id="DejaVuSans-35" d="M 691 4666 
L 3169 4666 
L 3169 4134 
L 1269 4134 
L 1269 2991 
Q 1406 3038 1543 3061 
Q 1681 3084 1819 3084 
Q 2600 3084 3056 2656 
Q 3513 2228 3513 1497 
Q 3513 744 3044 326 
Q 2575 -91 1722 -91 
Q 1428 -91 1123 -41 
Q 819 9 494 109 
L 494 744 
Q 775 591 1075 516 
Q 1375 441 1709 441 
Q 2250 441 2565 725 
Q 2881 1009 2881 1497 
Q 2881 1984 2565 2268 
Q 2250 2553 1709 2553 
Q 1456 2553 1204 2497 
Q 953 2441 691 2322 
L 691 4666 
z
" transform="scale(0.015625)"/>
       </defs>
       <use xlink:href="#DejaVuSans-32"/>
       <use xlink:href="#DejaVuSans-30" transform="translate(63.623047 0)"/>
       <use xlink:href="#DejaVuSans-32" transform="translate(127.246094 0)"/>
       <use xlink:href="#DejaVuSans-35" transform="translate(190.869141 0)"/>
       <use xlink:href="#DejaVuSans-2d" transform="translate(254.492188 0)"/>
       <use xlink:href="#DejaVuSans-30" transform="translate(290.576172 0)"/>
       <use xlink:href="#DejaVuSans-31" transform="translate(354.199219 0)"/>
      </g>
     </g>
    </g>
   </g>
   <g id="matplotlib.axis_2">
    <g id="ytick_1">
     <g id="line2d_17">
      <path d="M 108 307.83369 
L 777.6 307.83369 
" clip-path="url(#pf1ac6cd696)" style="fill: none; stroke-dasharray: 5.12,1.28,0.8,1.28; stroke-dashoffset: 0; stroke: #b0b0b0; stroke-width: 0.8"/>
     </g>
     <g id="line2d_18">
      <defs>
       <path id="mda249a5990" d="M 0 0 
L -3.5 0 
" style="stroke: #a9a9a9; stroke-width: 0.8"/>
      </defs>
      <g>
       <use xlink:href="#mda249a5990" x="108" y="307.83369" style="fill: #a9a9a9; stroke: #a9a9a9; stroke-width: 0.8"/>
      </g>
     </g>
     <g id="text_9">
      <!-- 0 -->
      <g style="fill: #a9a9a9" transform="translate(94.6375 311.632909) scale(0.1 -0.1)">
       <use xlink:href="#DejaVuSans-30"/>
      </g>
     </g>
    </g>
    <g id="ytick_2">
     <g id="line2d_19">
      <path d="M 108 274.14385 
L 777.6 274.14385 
" clip-path="url(#pf1ac6cd696)" style="fill: none; stroke-dasharray: 5.12,1.28,0.8,1.28; stroke-dashoffset: 0; stroke: #b0b0b0; stroke-width: 0.8"/>
     </g>
     <g id="line2d_20">
      <g>
       <use xlink:href="#mda249a5990" x="108" y="274.14385" style="fill: #a9a9a9; stroke: #a9a9a9; stroke-width: 0.8"/>
      </g>
     </g>
     <g id="text_10">
      <!-- 1000 -->
      <g style="fill: #a9a9a9" transform="translate(75.55 277.943069) scale(0.1 -0.1)">
       <use xlink:href="#DejaVuSans-31"/>
       <use xlink:href="#DejaVuSans-30" transform="translate(63.623047 0)"/>
       <use xlink:href="#DejaVuSans-30" transform="translate(127.246094 0)"/>
       <use xlink:href="#DejaVuSans-30" transform="translate(190.869141 0)"/>
      </g>
     </g>
    </g>
    <g id="ytick_3">
     <g id="line2d_21">
      <path d="M 108 240.454011 
L 777.6 240.454011 
" clip-path="url(#pf1ac6cd696)" style="fill: none; stroke-dasharray: 5.12,1.28,0.8,1.28; stroke-dashoffset: 0; stroke: #b0b0b0; stroke-width: 0.8"/>
     </g>
     <g id="line2d_22">
      <g>
       <use xlink:href="#mda249a5990" x="108" y="240.454011" style="fill: #a9a9a9; stroke: #a9a9a9; stroke-width: 0.8"/>
      </g>
     </g>
     <g id="text_11">
      <!-- 2000 -->
      <g style="fill: #a9a9a9" transform="translate(75.55 244.253229) scale(0.1 -0.1)">
       <use xlink:href="#DejaVuSans-32"/>
       <use xlink:href="#DejaVuSans-30" transform="translate(63.623047 0)"/>
       <use xlink:href="#DejaVuSans-30" transform="translate(127.246094 0)"/>
       <use xlink:href="#DejaVuSans-30" transform="translate(190.869141 0)"/>
      </g>
     </g>
    </g>
    <g id="ytick_4">
     <g id="line2d_23">
      <path d="M 108 206.764171 
L 777.6 206.764171 
" clip-path="url(#pf1ac6cd696)" style="fill: none; stroke-dasharray: 5.12,1.28,0.8,1.28; stroke-dashoffset: 0; stroke: #b0b0b0; stroke-width: 0.8"/>
     </g>
     <g id="line2d_24">
      <g>
       <use xlink:href="#mda249a5990" x="108" y="206.764171" style="fill: #a9a9a9; stroke: #a9a9a9; stroke-width: 0.8"/>
      </g>
     </g>
     <g id="text_12">
      <!-- 3000 -->
      <g style="fill: #a9a9a9" transform="translate(75.55 210.56339) scale(0.1 -0.1)">
       <use xlink:href="#DejaVuSans-33"/>
       <use xlink:href="#DejaVuSans-30" transform="translate(63.623047 0)"/>
       <use xlink:href="#DejaVuSans-30" transform="translate(127.246094 0)"/>
       <use xlink:href="#DejaVuSans-30" transform="translate(190.869141 0)"/>
      </g>
     </g>
    </g>
    <g id="ytick_5">
     <g id="line2d_25">
      <path d="M 108 173.074332 
L 777.6 173.074332 
" clip-path="url(#pf1ac6cd696)" style="fill: none; stroke-dasharray: 5.12,1.28,0.8,1.28; stroke-dashoffset: 0; stroke: #b0b0b0; stroke-width: 0.8"/>
     </g>
     <g id="line2d_26">
      <g>
       <use xlink:href="#mda249a5990" x="108" y="173.074332" style="fill: #a9a9a9; stroke: #a9a9a9; stroke-width: 0.8"/>
      </g>
     </g>
     <g id="text_13">
      <!-- 4000 -->
      <g style="fill: #a9a9a9" transform="translate(75.55 176.87355) scale(0.1 -0.1)">
       <use xlink:href="#DejaVuSans-34"/>
       <use xlink:href="#DejaVuSans-30" transform="translate(63.623047 0)"/>
       <use xlink:href="#DejaVuSans-30" transform="translate(127.246094 0)"/>
       <use xlink:href="#DejaVuSans-30" transform="translate(190.869141 0)"/>
      </g>
     </g>
    </g>
    <g id="ytick_6">
     <g id="line2d_27">
      <path d="M 108 139.384492 
L 777.6 139.384492 
" clip-path="url(#pf1ac6cd696)" style="fill: none; stroke-dasharray: 5.12,1.28,0.8,1.28; stroke-dashoffset: 0; stroke: #b0b0b0; stroke-width: 0.8"/>
     </g>
     <g id="line2d_28">
      <g>
       <use xlink:href="#mda249a5990" x="108" y="139.384492" style="fill: #a9a9a9; stroke: #a9a9a9; stroke-width: 0.8"/>
      </g>
     </g>
     <g id="text_14">
      <!-- 5000 -->
      <g style="fill: #a9a9a9" transform="translate(75.55 143.183711) scale(0.1 -0.1)">
       <use xlink:href="#DejaVuSans-35"/>
       <use xlink:href="#DejaVuSans-30" transform="translate(63.623047 0)"/>
       <use xlink:href="#DejaVuSans-30" transform="translate(127.246094 0)"/>
       <use xlink:href="#DejaVuSans-30" transform="translate(190.869141 0)"/>
      </g>
     </g>
    </g>
    <g id="ytick_7">
     <g id="line2d_29">
      <path d="M 108 105.694652 
L 777.6 105.694652 
" clip-path="url(#pf1ac6cd696)" style="fill: none; stroke-dasharray: 5.12,1.28,0.8,1.28; stroke-dashoffset: 0; stroke: #b0b0b0; stroke-width: 0.8"/>
     </g>
     <g id="line2d_30">
      <g>
       <use xlink:href="#mda249a5990" x="108" y="105.694652" style="fill: #a9a9a9; stroke: #a9a9a9; stroke-width: 0.8"/>
      </g>
     </g>
     <g id="text_15">
      <!-- 6000 -->
      <g style="fill: #a9a9a9" transform="translate(75.55 109.493871) scale(0.1 -0.1)">
       <defs>
        <path id="DejaVuSans-36" d="M 2113 2584 
Q 1688 2584 1439 2293 
Q 1191 2003 1191 1497 
Q 1191 994 1439 701 
Q 1688 409 2113 409 
Q 2538 409 2786 701 
Q 3034 994 3034 1497 
Q 3034 2003 2786 2293 
Q 2538 2584 2113 2584 
z
M 3366 4563 
L 3366 3988 
Q 3128 4100 2886 4159 
Q 2644 4219 2406 4219 
Q 1781 4219 1451 3797 
Q 1122 3375 1075 2522 
Q 1259 2794 1537 2939 
Q 1816 3084 2150 3084 
Q 2853 3084 3261 2657 
Q 3669 2231 3669 1497 
Q 3669 778 3244 343 
Q 2819 -91 2113 -91 
Q 1303 -91 875 529 
Q 447 1150 447 2328 
Q 447 3434 972 4092 
Q 1497 4750 2381 4750 
Q 2619 4750 2861 4703 
Q 3103 4656 3366 4563 
z
" transform="scale(0.015625)"/>
       </defs>
       <use xlink:href="#DejaVuSans-36"/>
       <use xlink:href="#DejaVuSans-30" transform="translate(63.623047 0)"/>
       <use xlink:href="#DejaVuSans-30" transform="translate(127.246094 0)"/>
       <use xlink:href="#DejaVuSans-30" transform="translate(190.869141 0)"/>
      </g>
     </g>
    </g>
    <g id="ytick_8">
     <g id="line2d_31">
      <path d="M 108 72.004813 
L 777.6 72.004813 
" clip-path="url(#pf1ac6cd696)" style="fill: none; stroke-dasharray: 5.12,1.28,0.8,1.28; stroke-dashoffset: 0; stroke: #b0b0b0; stroke-width: 0.8"/>
     </g>
     <g id="line2d_32">
      <g>
       <use xlink:href="#mda249a5990" x="108" y="72.004813" style="fill: #a9a9a9; stroke: #a9a9a9; stroke-width: 0.8"/>
      </g>
     </g>
     <g id="text_16">
      <!-- 7000 -->
      <g style="fill: #a9a9a9" transform="translate(75.55 75.804032) scale(0.1 -0.1)">
       <use xlink:href="#DejaVuSans-37"/>
       <use xlink:href="#DejaVuSans-30" transform="translate(63.623047 0)"/>
       <use xlink:href="#DejaVuSans-30" transform="translate(127.246094 0)"/>
       <use xlink:href="#DejaVuSans-30" transform="translate(190.869141 0)"/>
      </g>
     </g>
    </g>
   </g>
   <g id="line2d_33">
    <path d="M 138.436364 307.73262 
L 141.149858 307.496791 
L 141.602107 307.294652 
L 143.411104 307.058824 
L 145.2201 306.688235 
L 146.124598 306.553476 
L 148.385844 306.351337 
L 149.290342 305.980749 
L 149.742591 305.374332 
L 150.19484 305.071123 
L 150.647089 304.060428 
L 151.099338 303.993048 
L 151.551587 303.62246 
L 152.456085 303.150802 
L 154.265082 301.668449 
L 156.074078 300.758824 
L 157.430825 300.118717 
L 157.883074 299.37754 
L 158.787573 298.703743 
L 159.239822 298.501604 
L 163.762313 297.827807 
L 164.214562 297.625668 
L 167.380305 297.35615 
L 169.189302 296.918182 
L 172.807294 296.412834 
L 173.259543 296.177005 
L 173.711793 296.109626 
L 174.616291 295.806417 
L 177.782034 295.26738 
L 178.686532 294.997861 
L 182.756774 294.290374 
L 183.661272 294.088235 
L 184.565771 294.054545 
L 186.374767 293.616578 
L 186.827016 292.976471 
L 188.183763 292.437433 
L 189.540511 292.066845 
L 189.99276 291.831016 
L 190.897258 291.662567 
L 192.706254 291.123529 
L 193.610752 291.05615 
L 194.515251 290.820321 
L 196.324247 290.348663 
L 196.776496 290.314973 
L 197.680994 289.877005 
L 198.133243 289.809626 
L 198.585492 289.573797 
L 203.560232 288.731551 
L 205.369229 288.192513 
L 205.821478 287.889305 
L 208.082723 287.148128 
L 208.987221 286.508021 
L 210.343969 286.238503 
L 220.293449 283.307487 
L 220.745698 283.273797 
L 222.102445 282.869519 
L 222.554694 282.869519 
L 223.006943 282.66738 
L 223.911441 282.56631 
L 224.36369 282.397861 
L 226.172687 282.330481 
L 227.077185 282.162032 
L 227.981683 281.690374 
L 229.33843 281.185027 
L 229.790679 280.881818 
L 230.695178 280.47754 
L 231.147427 280.241711 
L 232.051925 279.938503 
L 232.504174 279.803743 
L 233.408672 279.231016 
L 233.860921 278.725668 
L 234.765419 277.310695 
L 235.217669 277.175936 
L 235.669918 277.175936 
L 237.026665 276.36738 
L 237.478914 276.131551 
L 237.931163 276.030481 
L 238.383412 275.592513 
L 239.28791 275.221925 
L 240.192408 274.783957 
L 242.453654 271.852941 
L 245.167148 270.370588 
L 246.071647 269.629412 
L 246.523896 269.326203 
L 246.976145 268.686096 
L 247.428394 267.641711 
L 247.880643 266.934225 
L 248.332892 266.563636 
L 248.785141 266.361497 
L 252.403134 262.992513 
L 253.307632 262.150267 
L 256.021127 260.432086 
L 256.473376 260.263636 
L 257.830123 259.45508 
L 259.18687 258.545455 
L 260.995867 256.894652 
L 261.900365 256.524064 
L 262.804863 255.883957 
L 263.257112 255.614439 
L 263.709361 255.547059 
L 265.066108 254.772193 
L 265.518357 254.266845 
L 267.779603 253.020321 
L 268.231852 252.851872 
L 269.588599 251.908556 
L 276.372336 249.482888 
L 277.276834 248.640642 
L 278.633581 247.966845 
L 279.538079 247.394118 
L 280.442577 247.124599 
L 280.894826 246.82139 
L 281.347076 246.686631 
L 282.703823 245.777005 
L 284.965068 245.271658 
L 286.321815 244.463102 
L 287.678563 244.159893 
L 288.130812 244.058824 
L 289.487559 243.014439 
L 291.296555 242.509091 
L 291.748805 242.138503 
L 294.462299 241.195187 
L 295.366797 241.026738 
L 296.271295 240.65615 
L 299.437039 239.477005 
L 300.341537 239.342246 
L 301.698284 238.870588 
L 303.95953 237.758824 
L 305.768526 236.748128 
L 309.386519 235.232086 
L 309.838768 235.164706 
L 310.743266 234.591979 
L 311.647764 234.35615 
L 313.004512 233.817112 
L 314.813508 233.581283 
L 315.718006 233.109626 
L 316.170255 232.705348 
L 316.622504 231.863102 
L 318.431501 231.357754 
L 319.788248 230.650267 
L 320.692746 230.347059 
L 321.597244 229.875401 
L 324.310739 228.763636 
L 325.215237 228.561497 
L 326.119735 228.08984 
L 326.571984 227.887701 
L 327.024233 227.820321 
L 329.285479 226.708556 
L 330.189977 226.135829 
L 331.546724 225.86631 
L 333.80797 225.293583 
L 334.260219 224.922995 
L 335.164717 224.619786 
L 337.425962 223.71016 
L 337.878212 223.373262 
L 338.330461 223.204813 
L 339.234959 222.699465 
L 341.043955 222.126738 
L 341.948453 221.554011 
L 342.400702 221.082353 
L 342.852952 220.812834 
L 343.305201 220.711765 
L 344.209699 219.970588 
L 344.661948 219.903209 
L 345.114197 219.162032 
L 345.566446 218.959893 
L 346.018695 218.589305 
L 346.470944 218.521925 
L 347.375442 217.949198 
L 348.279941 217.645989 
L 348.73219 217.309091 
L 349.184439 217.140642 
L 350.993435 215.927807 
L 352.350182 215.220321 
L 353.254681 214.984492 
L 354.159179 214.479144 
L 354.611428 213.704278 
L 355.515926 213.030481 
L 355.968175 212.929412 
L 358.68167 211.615508 
L 359.586168 211.24492 
L 360.942915 210.099465 
L 361.847413 209.324599 
L 362.751911 208.785561 
L 363.20416 208.280214 
L 363.65641 207.977005 
L 364.560908 207.235829 
L 365.013157 207.03369 
L 365.917655 206.124064 
L 366.822153 205.820856 
L 367.726651 205.214439 
L 369.083399 204.506952 
L 369.535648 204.439572 
L 370.892395 203.698396 
L 371.796893 203.125668 
L 376.319384 201.441176 
L 376.771633 201.070588 
L 378.580629 200.363102 
L 379.032879 200.228342 
L 379.937377 199.621925 
L 380.841875 199.251337 
L 381.746373 198.61123 
L 382.650871 196.791979 
L 383.555369 195.713904 
L 384.912117 195.006417 
L 385.816615 194.635829 
L 386.268864 194.568449 
L 386.721113 194.29893 
L 388.982359 193.557754 
L 389.434608 193.355615 
L 390.339106 192.749198 
L 391.695853 192.176471 
L 392.600351 191.671123 
L 393.504849 191.132086 
L 393.957098 190.828877 
L 394.409348 190.323529 
L 395.313846 189.818182 
L 397.575091 188.571658 
L 400.288586 187.224064 
L 401.645333 186.819786 
L 403.00208 186.280749 
L 403.454329 185.94385 
L 404.358828 185.674332 
L 405.263326 185.303743 
L 405.715575 184.933155 
L 407.524571 184.293048 
L 408.429069 183.652941 
L 409.333567 183.282353 
L 410.238066 182.574866 
L 411.142564 182.305348 
L 411.594813 181.90107 
L 412.047062 181.83369 
L 412.95156 181.126203 
L 413.856058 180.654545 
L 414.308307 180.452406 
L 414.760557 179.980749 
L 417.9263 178.700535 
L 418.830798 178.296257 
L 420.187546 177.858289 
L 421.092044 177.723529 
L 421.544293 177.52139 
L 421.996542 177.454011 
L 422.90104 177.049733 
L 423.353289 177.016043 
L 425.162286 176.342246 
L 426.519033 175.365241 
L 426.971282 175.196791 
L 427.87578 174.691444 
L 428.328029 174.556684 
L 431.041524 173.006952 
L 431.493773 172.905882 
L 432.85052 172.097326 
L 434.207267 171.625668 
L 435.111766 171.32246 
L 436.920762 170.716043 
L 437.82526 170.412834 
L 439.634256 170.042246 
L 440.086505 169.840107 
L 440.538755 169.772727 
L 441.443253 169.368449 
L 441.895502 169.30107 
L 442.347751 169.065241 
L 443.252249 168.896791 
L 444.608996 168.391444 
L 445.513495 168.290374 
L 446.870242 167.987166 
L 449.131487 167.582888 
L 460.889964 164.079144 
L 461.342213 163.607487 
L 462.246711 163.236898 
L 465.864703 161.855615 
L 466.316953 161.586096 
L 467.6737 161.181818 
L 468.578198 160.945989 
L 469.030447 160.642781 
L 469.482696 160.541711 
L 469.934945 160.137433 
L 471.291693 159.867914 
L 472.196191 159.429947 
L 472.64844 158.890909 
L 474.457436 158.452941 
L 477.62318 157.779144 
L 478.075429 157.779144 
L 478.527678 157.577005 
L 480.336674 157.240107 
L 480.788923 157.037968 
L 482.59792 156.70107 
L 483.502418 156.296791 
L 484.406916 156.128342 
L 486.668162 155.555615 
L 488.477158 154.982888 
L 488.929407 154.881818 
L 489.381656 154.645989 
L 490.286154 154.41016 
L 491.190652 154.039572 
L 492.095151 153.702674 
L 492.5474 153.399465 
L 493.451898 153.129947 
L 497.069891 151.883422 
L 497.974389 151.816043 
L 499.783385 151.277005 
L 500.235634 151.007487 
L 501.140132 150.737968 
L 503.401378 149.693583 
L 503.853627 149.659893 
L 508.828367 147.874332 
L 511.089612 147.267914 
L 511.99411 146.829947 
L 513.350858 146.526738 
L 515.159854 145.044385 
L 516.96885 144.269519 
L 517.873349 143.865241 
L 520.586843 142.820856 
L 521.039092 142.517647 
L 523.300338 141.776471 
L 524.657085 141.001604 
L 525.109334 140.900535 
L 527.370579 139.654011 
L 528.727327 139.047594 
L 529.179576 138.710695 
L 530.084074 138.407487 
L 532.345319 137.262032 
L 533.702067 136.790374 
L 535.511063 136.049198 
L 536.86781 135.54385 
L 537.320059 135.375401 
L 538.224558 135.240642 
L 538.676807 134.937433 
L 540.485803 134.566845 
L 541.390301 134.196257 
L 543.199298 133.354011 
L 549.530785 130.591444 
L 550.887532 130.153476 
L 551.339781 129.850267 
L 552.244279 129.749198 
L 552.696528 129.445989 
L 553.601027 129.27754 
L 554.505525 128.839572 
L 554.957774 128.637433 
L 555.862272 128.401604 
L 556.76677 128.132086 
L 558.123517 127.626738 
L 559.480265 127.18877 
L 560.837012 126.885561 
L 562.646008 126.144385 
L 563.550507 125.639037 
L 565.359503 124.729412 
L 566.264001 124.527273 
L 566.71625 124.257754 
L 567.168499 124.156684 
L 568.525247 123.381818 
L 569.429745 123.01123 
L 571.238741 122.303743 
L 573.499986 121.528877 
L 574.404485 121.057219 
L 576.66573 120.282353 
L 579.379225 119.170588 
L 581.188221 118.328342 
L 585.710712 116.576471 
L 586.61521 116.138503 
L 587.067459 116.037433 
L 587.519708 115.801604 
L 589.328705 115.296257 
L 591.137701 113.813904 
L 591.58995 113.679144 
L 592.042199 113.409626 
L 593.398946 113.039037 
L 593.851195 112.702139 
L 594.303445 112.60107 
L 595.207943 112.028342 
L 596.56469 111.320856 
L 597.469188 110.950267 
L 597.921437 110.714439 
L 599.278185 110.41123 
L 601.53943 109.636364 
L 602.443928 109.333155 
L 603.800675 108.625668 
L 604.705174 108.187701 
L 605.609672 107.951872 
L 606.966419 107.311765 
L 611.036661 105.795722 
L 612.393408 104.953476 
L 612.845657 104.852406 
L 613.750155 104.414439 
L 614.654654 104.07754 
L 615.106903 103.673262 
L 616.011401 103.302674 
L 617.368148 102.831016 
L 617.820397 102.460428 
L 618.272646 102.426738 
L 619.177144 102.157219 
L 620.081643 101.854011 
L 620.533892 101.651872 
L 620.986141 101.584492 
L 622.342888 101.079144 
L 623.699635 100.573797 
L 625.508632 99.765241 
L 625.960881 99.697861 
L 629.578873 98.181818 
L 630.935621 97.74385 
L 631.840119 97.676471 
L 632.744617 97.305882 
L 635.458112 96.497326 
L 636.36261 96.463636 
L 639.980602 95.284492 
L 640.885101 94.812834 
L 641.33735 94.408556 
L 642.694097 93.6 
L 643.598595 93.060963 
L 646.31209 92.185027 
L 646.764339 91.814439 
L 649.477833 90.668984 
L 651.28683 90.197326 
L 652.191328 89.793048 
L 652.643577 89.557219 
L 653.548075 89.287701 
L 654.000324 89.018182 
L 654.904822 88.849733 
L 658.522815 87.3 
L 658.975064 87.23262 
L 659.427313 86.929412 
L 659.879562 86.760963 
L 660.331811 86.356684 
L 660.784061 86.289305 
L 662.593057 85.581818 
L 664.402053 85.14385 
L 664.854302 85.076471 
L 665.306551 84.874332 
L 665.7588 84.840642 
L 666.663299 84.537433 
L 667.115548 84.503743 
L 668.472295 83.964706 
L 670.281291 83.425668 
L 671.18579 82.751872 
L 672.994786 81.741176 
L 674.351533 81.269519 
L 677.969526 79.551337 
L 678.421775 79.315508 
L 678.874024 78.87754 
L 681.135269 78.271123 
L 682.492017 77.664706 
L 683.396515 77.428877 
L 683.848764 77.193048 
L 684.301013 76.82246 
L 686.110009 76.350802 
L 686.562259 76.013904 
L 692.441497 73.891444 
L 693.345995 73.722995 
L 695.60724 73.015508 
L 696.511738 72.64492 
L 697.416237 72.308021 
L 698.320735 72.072193 
L 698.772984 71.870053 
L 699.225233 71.870053 
L 700.129731 71.499465 
L 701.034229 70.960428 
L 703.295475 70.185561 
L 704.652222 69.713904 
L 705.104471 69.646524 
L 706.008969 69.275936 
L 707.365717 68.972727 
L 708.722464 68.534759 
L 709.174713 68.43369 
L 709.626962 68.130481 
L 710.53146 67.928342 
L 719.576442 65.334225 
L 721.837687 64.929947 
L 722.742186 64.491979 
L 723.646684 64.054011 
L 725.003431 63.649733 
L 729.525922 61.965241 
L 729.978171 61.628342 
L 731.334918 61.325134 
L 732.239416 61.055615 
L 733.143915 60.617647 
L 733.596164 60.213369 
L 734.500662 59.91016 
L 734.952911 59.640642 
L 735.857409 59.539572 
L 739.023153 58.663636 
L 740.3799 58.394118 
L 743.093395 57.484492 
L 744.902391 56.608556 
L 747.163636 55.8 
L 747.163636 55.8 
" clip-path="url(#pf1ac6cd696)" style="fill: none; stroke: #1f77b4; stroke-width: 1.5; stroke-linecap: square"/>
   </g>
   <g id="line2d_34">
    <path d="M 138.888613 307.8 
L 142.958855 307.69893 
L 146.576847 307.530481 
L 148.385844 307.530481 
L 148.838093 307.395722 
L 151.099338 307.294652 
L 153.812833 306.991444 
L 156.526327 306.890374 
L 157.430825 306.789305 
L 160.596569 306.654545 
L 163.762313 306.553476 
L 166.023558 306.486096 
L 171.902796 306.385027 
L 174.164042 306.317647 
L 178.234283 306.216578 
L 180.04328 306.182888 
L 184.565771 306.081818 
L 186.374767 305.913369 
L 188.183763 305.879679 
L 190.897258 305.77861 
L 192.706254 305.74492 
L 194.9675 305.67754 
L 196.776496 305.509091 
L 200.846738 305.408021 
L 201.751236 305.340642 
L 203.560232 305.239572 
L 206.273727 305.138503 
L 208.082723 305.037433 
L 216.223207 304.532086 
L 219.38895 304.431016 
L 220.745698 304.296257 
L 223.006943 304.195187 
L 227.529434 303.959358 
L 232.051925 303.891979 
L 233.860921 303.68984 
L 235.669918 303.58877 
L 240.644658 303.117112 
L 243.810401 302.746524 
L 245.167148 302.679144 
L 248.785141 302.207487 
L 251.498636 302.140107 
L 252.855383 302.005348 
L 254.21213 301.904278 
L 266.875105 300.927273 
L 267.779603 300.758824 
L 270.493097 300.657754 
L 277.729083 300.219786 
L 280.894826 300.118717 
L 282.703823 299.916578 
L 284.965068 299.815508 
L 287.678563 299.714439 
L 289.939808 299.613369 
L 291.748805 299.579679 
L 294.01005 299.512299 
L 294.914548 299.37754 
L 301.246035 299.276471 
L 302.150534 299.175401 
L 307.577523 299.074332 
L 311.647764 298.872193 
L 314.813508 298.771123 
L 316.622504 298.568984 
L 319.788248 298.467914 
L 320.692746 298.299465 
L 322.953992 298.232086 
L 327.476483 298.164706 
L 329.285479 297.996257 
L 331.094475 297.962567 
L 332.451222 297.861497 
L 334.260219 297.693048 
L 338.78271 297.457219 
L 343.305201 297.35615 
L 347.375442 297.154011 
L 348.73219 297.120321 
L 349.636688 296.985561 
L 351.897933 296.884492 
L 352.802431 296.817112 
L 353.70693 296.749733 
L 354.611428 296.682353 
L 358.68167 296.614973 
L 360.038417 296.513904 
L 372.249142 295.705348 
L 374.510388 295.604278 
L 376.771633 295.536898 
L 383.10312 295.435829 
L 384.007619 295.30107 
L 390.339106 295.2 
L 394.861597 294.964171 
L 395.766095 294.930481 
L 396.670593 294.829412 
L 398.931838 294.728342 
L 401.193084 294.660963 
L 403.454329 294.559893 
L 405.715575 294.492513 
L 409.785817 294.391444 
L 412.499311 294.290374 
L 418.830798 294.189305 
L 423.805538 293.919786 
L 425.614535 293.852406 
L 426.971282 293.751337 
L 433.302769 293.650267 
L 436.016264 293.549198 
L 444.156747 293.448128 
L 445.965744 293.414439 
L 451.392733 293.347059 
L 452.297231 293.279679 
L 458.628718 293.17861 
L 460.437714 293.14492 
L 472.196191 293.04385 
L 474.909685 292.942781 
L 493.904147 292.841711 
L 496.165392 292.774332 
L 507.923869 292.706952 
L 508.828367 292.639572 
L 511.089612 292.572193 
L 512.44636 292.437433 
L 515.159854 292.336364 
L 518.325598 292.201604 
L 522.39584 292.100535 
L 524.657085 292.033155 
L 527.822829 291.932086 
L 531.440821 291.763636 
L 533.702067 291.662567 
L 535.511063 291.628877 
L 539.581305 291.527807 
L 541.390301 291.494118 
L 547.269539 291.393048 
L 549.078536 291.359358 
L 551.339781 291.258289 
L 554.053276 291.157219 
L 557.219019 291.08984 
L 558.123517 291.02246 
L 568.977496 290.92139 
L 574.856734 290.584492 
L 577.117979 290.517112 
L 578.022477 290.416043 
L 578.926976 290.348663 
L 582.544968 290.247594 
L 585.258463 290.146524 
L 589.780954 290.045455 
L 592.042199 289.809626 
L 596.56469 289.708556 
L 597.469188 289.607487 
L 601.991679 289.506417 
L 604.252924 289.439037 
L 609.227664 289.405348 
L 610.132163 289.304278 
L 615.106903 289.203209 
L 616.011401 289.135829 
L 625.960881 289.034759 
L 628.674375 288.93369 
L 635.458112 288.83262 
L 637.267108 288.79893 
L 641.33735 288.731551 
L 642.241848 288.630481 
L 648.121086 288.529412 
L 650.382331 288.462032 
L 658.522815 288.360963 
L 659.879562 288.259893 
L 661.23631 288.158824 
L 662.593057 288.057754 
L 669.376793 287.956684 
L 672.090288 287.855615 
L 684.301013 287.754545 
L 688.371255 287.552406 
L 693.798244 287.451337 
L 694.702742 287.383957 
L 701.486478 287.316578 
L 702.390977 287.249198 
L 707.365717 287.148128 
L 709.174713 287.114439 
L 715.5062 287.013369 
L 718.219695 286.912299 
L 725.907929 286.81123 
L 727.716926 286.77754 
L 731.787167 286.676471 
L 735.40516 286.508021 
L 740.3799 286.406952 
L 743.545644 286.272193 
L 747.163636 286.204813 
L 747.163636 286.204813 
" clip-path="url(#pf1ac6cd696)" style="fill: none; stroke: #ff7f0e; stroke-width: 1.5; stroke-linecap: square"/>
   </g>
   <g id="patch_3">
    <path d="M 108 320.4 
L 108 43.2 
" style="fill: none; stroke: #a9a9a9; stroke-width: 0.8; stroke-linejoin: miter; stroke-linecap: square"/>
   </g>
   <g id="patch_4">
    <path d="M 777.6 320.4 
L 777.6 43.2 
" style="fill: none"/>
   </g>
   <g id="patch_5">
    <path d="M 108 320.4 
L 777.6 320.4 
" style="fill: none; stroke: #a9a9a9; stroke-width: 0.8; stroke-linejoin: miter; stroke-linecap: square"/>
   </g>
   <g id="patch_6">
    <path d="M 108 43.2 
L 777.6 43.2 
" style="fill: none"/>
   </g>
   <g id="text_17">
    <!-- get_subscribe history -->
    <g style="fill: #a9a9a9" transform="translate(378.6075 37.2) scale(0.12 -0.12)">
     <defs>
      <path id="DejaVuSans-67" d="M 2906 1791 
Q 2906 2416 2648 2759 
Q 2391 3103 1925 3103 
Q 1463 3103 1205 2759 
Q 947 2416 947 1791 
Q 947 1169 1205 825 
Q 1463 481 1925 481 
Q 2391 481 2648 825 
Q 2906 1169 2906 1791 
z
M 3481 434 
Q 3481 -459 3084 -895 
Q 2688 -1331 1869 -1331 
Q 1566 -1331 1297 -1286 
Q 1028 -1241 775 -1147 
L 775 -588 
Q 1028 -725 1275 -790 
Q 1522 -856 1778 -856 
Q 2344 -856 2625 -561 
Q 2906 -266 2906 331 
L 2906 616 
Q 2728 306 2450 153 
Q 2172 0 1784 0 
Q 1141 0 747 490 
Q 353 981 353 1791 
Q 353 2603 747 3093 
Q 1141 3584 1784 3584 
Q 2172 3584 2450 3431 
Q 2728 3278 2906 2969 
L 2906 3500 
L 3481 3500 
L 3481 434 
z
" transform="scale(0.015625)"/>
      <path id="DejaVuSans-65" d="M 3597 1894 
L 3597 1613 
L 953 1613 
Q 991 1019 1311 708 
Q 1631 397 2203 397 
Q 2534 397 2845 478 
Q 3156 559 3463 722 
L 3463 178 
Q 3153 47 2828 -22 
Q 2503 -91 2169 -91 
Q 1331 -91 842 396 
Q 353 884 353 1716 
Q 353 2575 817 3079 
Q 1281 3584 2069 3584 
Q 2775 3584 3186 3129 
Q 3597 2675 3597 1894 
z
M 3022 2063 
Q 3016 2534 2758 2815 
Q 2500 3097 2075 3097 
Q 1594 3097 1305 2825 
Q 1016 2553 972 2059 
L 3022 2063 
z
" transform="scale(0.015625)"/>
      <path id="DejaVuSans-74" d="M 1172 4494 
L 1172 3500 
L 2356 3500 
L 2356 3053 
L 1172 3053 
L 1172 1153 
Q 1172 725 1289 603 
Q 1406 481 1766 481 
L 2356 481 
L 2356 0 
L 1766 0 
Q 1100 0 847 248 
Q 594 497 594 1153 
L 594 3053 
L 172 3053 
L 172 3500 
L 594 3500 
L 594 4494 
L 1172 4494 
z
" transform="scale(0.015625)"/>
      <path id="DejaVuSans-5f" d="M 3263 -1063 
L 3263 -1509 
L -63 -1509 
L -63 -1063 
L 3263 -1063 
z
" transform="scale(0.015625)"/>
      <path id="DejaVuSans-73" d="M 2834 3397 
L 2834 2853 
Q 2591 2978 2328 3040 
Q 2066 3103 1784 3103 
Q 1356 3103 1142 2972 
Q 928 2841 928 2578 
Q 928 2378 1081 2264 
Q 1234 2150 1697 2047 
L 1894 2003 
Q 2506 1872 2764 1633 
Q 3022 1394 3022 966 
Q 3022 478 2636 193 
Q 2250 -91 1575 -91 
Q 1294 -91 989 -36 
Q 684 19 347 128 
L 347 722 
Q 666 556 975 473 
Q 1284 391 1588 391 
Q 1994 391 2212 530 
Q 2431 669 2431 922 
Q 2431 1156 2273 1281 
Q 2116 1406 1581 1522 
L 1381 1569 
Q 847 1681 609 1914 
Q 372 2147 372 2553 
Q 372 3047 722 3315 
Q 1072 3584 1716 3584 
Q 2034 3584 2315 3537 
Q 2597 3491 2834 3397 
z
" transform="scale(0.015625)"/>
      <path id="DejaVuSans-75" d="M 544 1381 
L 544 3500 
L 1119 3500 
L 1119 1403 
Q 1119 906 1312 657 
Q 1506 409 1894 409 
Q 2359 409 2629 706 
Q 2900 1003 2900 1516 
L 2900 3500 
L 3475 3500 
L 3475 0 
L 2900 0 
L 2900 538 
Q 2691 219 2414 64 
Q 2138 -91 1772 -91 
Q 1169 -91 856 284 
Q 544 659 544 1381 
z
M 1991 3584 
L 1991 3584 
z
" transform="scale(0.015625)"/>
      <path id="DejaVuSans-62" d="M 3116 1747 
Q 3116 2381 2855 2742 
Q 2594 3103 2138 3103 
Q 1681 3103 1420 2742 
Q 1159 2381 1159 1747 
Q 1159 1113 1420 752 
Q 1681 391 2138 391 
Q 2594 391 2855 752 
Q 3116 1113 3116 1747 
z
M 1159 2969 
Q 1341 3281 1617 3432 
Q 1894 3584 2278 3584 
Q 2916 3584 3314 3078 
Q 3713 2572 3713 1747 
Q 3713 922 3314 415 
Q 2916 -91 2278 -91 
Q 1894 -91 1617 61 
Q 1341 213 1159 525 
L 1159 0 
L 581 0 
L 581 4863 
L 1159 4863 
L 1159 2969 
z
" transform="scale(0.015625)"/>
      <path id="DejaVuSans-63" d="M 3122 3366 
L 3122 2828 
Q 2878 2963 2633 3030 
Q 2388 3097 2138 3097 
Q 1578 3097 1268 2742 
Q 959 2388 959 1747 
Q 959 1106 1268 751 
Q 1578 397 2138 397 
Q 2388 397 2633 464 
Q 2878 531 3122 666 
L 3122 134 
Q 2881 22 2623 -34 
Q 2366 -91 2075 -91 
Q 1284 -91 818 406 
Q 353 903 353 1747 
Q 353 2603 823 3093 
Q 1294 3584 2113 3584 
Q 2378 3584 2631 3529 
Q 2884 3475 3122 3366 
z
" transform="scale(0.015625)"/>
      <path id="DejaVuSans-72" d="M 2631 2963 
Q 2534 3019 2420 3045 
Q 2306 3072 2169 3072 
Q 1681 3072 1420 2755 
Q 1159 2438 1159 1844 
L 1159 0 
L 581 0 
L 581 3500 
L 1159 3500 
L 1159 2956 
Q 1341 3275 1631 3429 
Q 1922 3584 2338 3584 
Q 2397 3584 2469 3576 
Q 2541 3569 2628 3553 
L 2631 2963 
z
" transform="scale(0.015625)"/>
      <path id="DejaVuSans-69" d="M 603 3500 
L 1178 3500 
L 1178 0 
L 603 0 
L 603 3500 
z
M 603 4863 
L 1178 4863 
L 1178 4134 
L 603 4134 
L 603 4863 
z
" transform="scale(0.015625)"/>
      <path id="DejaVuSans-20" transform="scale(0.015625)"/>
      <path id="DejaVuSans-68" d="M 3513 2113 
L 3513 0 
L 2938 0 
L 2938 2094 
Q 2938 2591 2744 2837 
Q 2550 3084 2163 3084 
Q 1697 3084 1428 2787 
Q 1159 2491 1159 1978 
L 1159 0 
L 581 0 
L 581 4863 
L 1159 4863 
L 1159 2956 
Q 1366 3272 1645 3428 
Q 1925 3584 2291 3584 
Q 2894 3584 3203 3211 
Q 3513 2838 3513 2113 
z
" transform="scale(0.015625)"/>
      <path id="DejaVuSans-6f" d="M 1959 3097 
Q 1497 3097 1228 2736 
Q 959 2375 959 1747 
Q 959 1119 1226 758 
Q 1494 397 1959 397 
Q 2419 397 2687 759 
Q 2956 1122 2956 1747 
Q 2956 2369 2687 2733 
Q 2419 3097 1959 3097 
z
M 1959 3584 
Q 2709 3584 3137 3096 
Q 3566 2609 3566 1747 
Q 3566 888 3137 398 
Q 2709 -91 1959 -91 
Q 1206 -91 779 398 
Q 353 888 353 1747 
Q 353 2609 779 3096 
Q 1206 3584 1959 3584 
z
" transform="scale(0.015625)"/>
      <path id="DejaVuSans-79" d="M 2059 -325 
Q 1816 -950 1584 -1140 
Q 1353 -1331 966 -1331 
L 506 -1331 
L 506 -850 
L 844 -850 
Q 1081 -850 1212 -737 
Q 1344 -625 1503 -206 
L 1606 56 
L 191 3500 
L 800 3500 
L 1894 763 
L 2988 3500 
L 3597 3500 
L 2059 -325 
z
" transform="scale(0.015625)"/>
     </defs>
     <use xlink:href="#DejaVuSans-67"/>
     <use xlink:href="#DejaVuSans-65" transform="translate(63.476562 0)"/>
     <use xlink:href="#DejaVuSans-74" transform="translate(125 0)"/>
     <use xlink:href="#DejaVuSans-5f" transform="translate(164.208984 0)"/>
     <use xlink:href="#DejaVuSans-73" transform="translate(214.208984 0)"/>
     <use xlink:href="#DejaVuSans-75" transform="translate(266.308594 0)"/>
     <use xlink:href="#DejaVuSans-62" transform="translate(329.6875 0)"/>
     <use xlink:href="#DejaVuSans-73" transform="translate(393.164062 0)"/>
     <use xlink:href="#DejaVuSans-63" transform="translate(445.263672 0)"/>
     <use xlink:href="#DejaVuSans-72" transform="translate(500.244141 0)"/>
     <use xlink:href="#DejaVuSans-69" transform="translate(541.357422 0)"/>
     <use xlink:href="#DejaVuSans-62" transform="translate(569.140625 0)"/>
     <use xlink:href="#DejaVuSans-65" transform="translate(632.617188 0)"/>
     <use xlink:href="#DejaVuSans-20" transform="translate(694.140625 0)"/>
     <use xlink:href="#DejaVuSans-68" transform="translate(725.927734 0)"/>
     <use xlink:href="#DejaVuSans-69" transform="translate(789.306641 0)"/>
     <use xlink:href="#DejaVuSans-73" transform="translate(817.089844 0)"/>
     <use xlink:href="#DejaVuSans-74" transform="translate(869.189453 0)"/>
     <use xlink:href="#DejaVuSans-6f" transform="translate(908.398438 0)"/>
     <use xlink:href="#DejaVuSans-72" transform="translate(969.580078 0)"/>
     <use xlink:href="#DejaVuSans-79" transform="translate(1010.693359 0)"/>
    </g>
   </g>
   <g id="legend_1">
    <g id="line2d_35">
     <path d="M 815.08 328.498438 
L 825.08 328.498438 
L 835.08 328.498438 
" style="fill: none; stroke: #1f77b4; stroke-width: 1.5; stroke-linecap: square"/>
    </g>
    <g id="text_18">
     <!-- star -->
     <g style="fill: #a9a9a9" transform="translate(843.08 331.998438) scale(0.1 -0.1)">
      <defs>
       <path id="DejaVuSans-61" d="M 2194 1759 
Q 1497 1759 1228 1600 
Q 959 1441 959 1056 
Q 959 750 1161 570 
Q 1363 391 1709 391 
Q 2188 391 2477 730 
Q 2766 1069 2766 1631 
L 2766 1759 
L 2194 1759 
z
M 3341 1997 
L 3341 0 
L 2766 0 
L 2766 531 
Q 2569 213 2275 61 
Q 1981 -91 1556 -91 
Q 1019 -91 701 211 
Q 384 513 384 1019 
Q 384 1609 779 1909 
Q 1175 2209 1959 2209 
L 2766 2209 
L 2766 2266 
Q 2766 2663 2505 2880 
Q 2244 3097 1772 3097 
Q 1472 3097 1187 3025 
Q 903 2953 641 2809 
L 641 3341 
Q 956 3463 1253 3523 
Q 1550 3584 1831 3584 
Q 2591 3584 2966 3190 
Q 3341 2797 3341 1997 
z
" transform="scale(0.015625)"/>
      </defs>
      <use xlink:href="#DejaVuSans-73"/>
      <use xlink:href="#DejaVuSans-74" transform="translate(52.099609 0)"/>
      <use xlink:href="#DejaVuSans-61" transform="translate(91.308594 0)"/>
      <use xlink:href="#DejaVuSans-72" transform="translate(152.587891 0)"/>
     </g>
    </g>
    <g id="line2d_36">
     <path d="M 815.08 343.176562 
L 825.08 343.176562 
L 835.08 343.176562 
" style="fill: none; stroke: #ff7f0e; stroke-width: 1.5; stroke-linecap: square"/>
    </g>
    <g id="text_19">
     <!-- fork -->
     <g style="fill: #a9a9a9" transform="translate(843.08 346.676562) scale(0.1 -0.1)">
      <defs>
       <path id="DejaVuSans-66" d="M 2375 4863 
L 2375 4384 
L 1825 4384 
Q 1516 4384 1395 4259 
Q 1275 4134 1275 3809 
L 1275 3500 
L 2222 3500 
L 2222 3053 
L 1275 3053 
L 1275 0 
L 697 0 
L 697 3053 
L 147 3053 
L 147 3500 
L 697 3500 
L 697 3744 
Q 697 4328 969 4595 
Q 1241 4863 1831 4863 
L 2375 4863 
z
" transform="scale(0.015625)"/>
       <path id="DejaVuSans-6b" d="M 581 4863 
L 1159 4863 
L 1159 1991 
L 2875 3500 
L 3609 3500 
L 1753 1863 
L 3688 0 
L 2938 0 
L 1159 1709 
L 1159 0 
L 581 0 
L 581 4863 
z
" transform="scale(0.015625)"/>
      </defs>
      <use xlink:href="#DejaVuSans-66"/>
      <use xlink:href="#DejaVuSans-6f" transform="translate(35.205078 0)"/>
      <use xlink:href="#DejaVuSans-72" transform="translate(96.386719 0)"/>
      <use xlink:href="#DejaVuSans-6b" transform="translate(137.5 0)"/>
     </g>
    </g>
   </g>
  </g>
 </g>
 <defs>
  <clipPath id="pf1ac6cd696">
   <rect x="108" y="43.2" width="669.6" height="277.2"/>
  </clipPath>
 </defs>
</svg>
